<svg xmlns="http://www.w3.org/2000/svg" viewBox="0 0 750 500"><g id="freepik--background-complete--inject-30"><path d="M693,238.49H585.34s10.68-29.16,27.11-29.16S634,229.45,634,229.45s11.08-10.93,20.19-10.93,17,14.45,17,14.45S684.11,225.2,693,238.49Z" style="fill:#ebebeb;opacity:0.4"></path><path d="M284.77,137.45H177.1s10.68-29.16,27.11-29.16,21.57,20.13,21.57,20.13,11.09-10.94,20.2-10.94,17,14.45,17,14.45S275.87,124.16,284.77,137.45Z" style="fill:#ebebeb"></path><path d="M505.71,206.89H455.39s11.25-16.29,20.1-16.29S487,201.46,487,201.46s6.25-5.07,12-4.16S505.71,206.89,505.71,206.89Z" style="fill:#ebebeb"></path><path d="M302.27,248.36H252s11.25-16.29,20.11-16.29,11.47,10.86,11.47,10.86,6.25-5.07,12.05-4.17S302.27,248.36,302.27,248.36Z" style="fill:#ebebeb"></path><path d="M153.56,215.63h-98s13.42-30,27.78-31.84,21.22,22.27,21.22,22.27,9.26-8.53,16.55-8.53S134,208.76,134,208.76,148.56,201.06,153.56,215.63Z" style="fill:#ebebeb;opacity:0.4"></path><path d="M351,171.36H284.78s11.38-21.71,23.71-22,18.83,16.43,18.83,16.43S346.51,150.37,351,171.36Z" style="fill:#ebebeb;opacity:0.4"></path><path d="M694.45,195.08h-66.2s11.37-21.71,23.71-22,18.82,16.43,18.82,16.43S690,174.08,694.45,195.08Z" style="fill:#ebebeb"></path><path d="M215,369.55c3.51-.85,7.63-.08,7.79-.39s-.14-2,1-1.3,1.45,1.75,2.18,2.31l.17.11c.82.44,2.43.45,3,1.42s-1.44,1.18-1.44,1.18a25.76,25.76,0,0,1,1.81,5.22c.52,2.56.47,6.26-1.15,6.16s-2.36-2-3.21-2.07-1.8,1.65-3.28,1a2.39,2.39,0,0,1-1-.94c-.68-1.08-1-2.6-1.49-3-.73-.56-3,.55-4.35-.88s.45-2.42-.34-3.4-2.4-.91-3.08-2.14S211.52,370.39,215,369.55Z" style="fill:#ebebeb"></path><path d="M225.69,375.29a16.38,16.38,0,0,1-.4,5.89c-.07.34.57.66.64.32a16.7,16.7,0,0,0,.42-6C226.3,375.1,225.63,374.91,225.69,375.29Z" style="fill:#fff"></path><path d="M225.85,374.33c.38.29.69-.12.31-.41S225.47,374,225.85,374.33Z" style="fill:#fff"></path><path d="M219.81,377.74c-.2.26.38.71.58.44l3.8-5c.2-.27-.38-.71-.58-.45Z" style="fill:#fff"></path><path d="M216.35,374a17.4,17.4,0,0,1,6.54-2.08c.38,0,0-.63-.35-.59a17.86,17.86,0,0,0-6.67,2.13C215.56,373.6,216,374.14,216.35,374Z" style="fill:#fff"></path><path d="M215.3,374.3c.38.29.69-.12.31-.41S214.93,374,215.3,374.3Z" style="fill:#fff"></path><path d="M597.86,372.69c-1.88,5.27-6.38,10-6.11,10.46s2.64,1.47.84,2.39-3.5.39-4.85.86a1.55,1.55,0,0,0-.29.14c-1.28.68-2.66,2.76-4.39,2.65s-.3-2.87-.3-2.87a40.23,40.23,0,0,1-8.33-2.09c-3.77-1.5-8.54-4.71-7-6.73s4.56-1.4,5.42-2.41-.62-3.75,1.54-5.08a3.71,3.71,0,0,1,2.07-.47c2,0,4.19.95,5.17.61,1.34-.48,1.87-4.42,4.84-4.9s2.75,2.64,4.7,2.44,3.22-2.34,5.4-2.18S599.74,367.42,597.86,372.69Z" style="fill:#ebebeb"></path><path d="M581.32,381.67a25.12,25.12,0,0,1-7.3-5.53c-.39-.38-1.35.18-1,.57a26.15,26.15,0,0,0,7.47,5.67C581.06,382.62,581.86,381.92,581.32,381.67Z" style="fill:#fff"></path><path d="M582.44,382.7c-.69.24-.43,1,.26.75S583.13,382.45,582.44,382.7Z" style="fill:#fff"></path><path d="M583.15,371.94c-.17-.48-1.25-.1-1.08.38q1.65,4.6,3.28,9.21c.18.49,1.25.11,1.08-.38Z" style="fill:#fff"></path><path d="M591,370.64a27,27,0,0,1-2.86,10.27c-.28.53.79.58,1.07,0a27.7,27.7,0,0,0,2.9-10.48C592.14,369.94,591,370.11,591,370.64Z" style="fill:#fff"></path><path d="M591.44,369c-.69.24-.42,1,.27.75S592.14,368.76,591.44,369Z" style="fill:#fff"></path><path d="M581.3,356.18c-3.7,2.07-8.61,2.52-8.69,2.92s.77,2.16-.71,1.79-2.19-1.52-3.2-1.92a.88.88,0,0,0-.23-.07c-1.06-.25-2.89.26-3.82-.67s1.25-1.79,1.25-1.79a30.12,30.12,0,0,1-3.71-5.33c-1.4-2.73-2.53-6.94-.66-7.34s3.3,1.47,4.29,1.32,1.51-2.45,3.41-2.13a2.73,2.73,0,0,1,1.41.76c1.11,1,1.92,2.63,2.64,2.92,1,.39,3.27-1.6,5.2-.39s.26,2.88,1.47,3.73,3,.27,4.17,1.44S585,354.11,581.3,356.18Z" style="fill:#ebebeb"></path><path d="M567.39,353.07a19.15,19.15,0,0,1-1.41-6.79c0-.4-.86-.56-.83-.15a19.43,19.43,0,0,0,1.44,6.95C566.77,353.49,567.58,353.49,567.39,353.07Z" style="fill:#fff"></path><path d="M567.52,354.22c-.52-.21-.74.35-.22.56S568,354.42,567.52,354.22Z" style="fill:#fff"></path><path d="M573.28,348.43c.14-.36-.66-.68-.81-.31l-2.7,6.88c-.15.36.66.68.8.32C571.47,353,572.37,350.73,573.28,348.43Z" style="fill:#fff"></path><path d="M578.39,351.58a20.55,20.55,0,0,1-6.74,4.44c-.43.16.16.72.58.56A21,21,0,0,0,579.1,352C579.4,351.76,578.69,351.31,578.39,351.58Z" style="fill:#fff"></path><path d="M579.47,350.88c-.52-.2-.74.36-.22.57S580,351.09,579.47,350.88Z" style="fill:#fff"></path><path d="M195.19,399.2c-.26.55,3.94,6,2.37,6.6s-11.83-4-12.88-4a39,39,0,0,0-4.88,2.05c-2.64,1.14-5.63,2.25-7.09,1.8-2.76-.86,3.82-6.46,3-6.8s-10-3.23-9.06-4.4,11.69-.69,12.48-.83,2.23-7.07,4.86-7.28a2.18,2.18,0,0,1,.9.14h0c2.54.94,5.2,6.2,6.59,7.13.73.48,12.49-1,13.67,0S195.46,398.65,195.19,399.2Z" style="fill:#dbdbdb"></path><path d="M184.14,387.18c-1.39,0-1.39,1.13,0,1.13S185.53,387.18,184.14,387.18Z" style="fill:#fff"></path><path d="M184.47,389.31c-1.39,0-1.39,1.13,0,1.13S185.86,389.31,184.47,389.31Z" style="fill:#fff"></path><path d="M184.73,391.44c-1.39,0-1.39,1.13,0,1.13S186.12,391.44,184.73,391.44Z" style="fill:#fff"></path><path d="M185.18,393.57c-1.39,0-1.39,1.13,0,1.13S186.58,393.57,185.18,393.57Z" style="fill:#fff"></path><path d="M185.51,395.59c-2.3,0-2.31,1.87,0,1.87S187.82,395.59,185.51,395.59Z" style="fill:#fff"></path><path d="M189.37,395.65c-1.39,0-1.4,1.13,0,1.13S190.76,395.65,189.37,395.65Z" style="fill:#fff"></path><path d="M193.55,395.29c-1.39,0-1.39,1.13,0,1.13S194.94,395.29,193.55,395.29Z" style="fill:#fff"></path><path d="M197.8,394.72c-1.39,0-1.39,1.13,0,1.13S199.19,394.72,197.8,394.72Z" style="fill:#fff"></path><path d="M201.52,394.14c-1.39,0-1.39,1.13,0,1.13S202.91,394.14,201.52,394.14Z" style="fill:#fff"></path><path d="M187.88,397.86c-1.39,0-1.4,1.13,0,1.13S189.27,397.86,187.88,397.86Z" style="fill:#fff"></path><path d="M190,399.67c-1.4,0-1.4,1.13,0,1.13S191.36,399.67,190,399.67Z" style="fill:#fff"></path><path d="M192.51,401.44c-1.39,0-1.4,1.13,0,1.13S193.9,401.44,192.51,401.44Z" style="fill:#fff"></path><path d="M195.05,403.29c-1.39,0-1.4,1.13,0,1.13S196.44,403.29,195.05,403.29Z" style="fill:#fff"></path><path d="M183,397.86c-1.39,0-1.39,1.13,0,1.13S184.36,397.86,183,397.86Z" style="fill:#fff"></path><path d="M180.48,399.54c-1.39,0-1.39,1.13,0,1.13S181.88,399.54,180.48,399.54Z" style="fill:#fff"></path><path d="M178.16,401.28c-1.39,0-1.39,1.13,0,1.13S179.55,401.28,178.16,401.28Z" style="fill:#fff"></path><path d="M175.71,403.18c-1.39,0-1.4,1.13,0,1.13S177.1,403.18,175.71,403.18Z" style="fill:#fff"></path><path d="M181.44,395.65c-1.39,0-1.39,1.13,0,1.13S182.83,395.65,181.44,395.65Z" style="fill:#fff"></path><path d="M177.69,395.4c-1.39,0-1.39,1.13,0,1.13S179.09,395.4,177.69,395.4Z" style="fill:#fff"></path><path d="M173.75,395.09c-1.39,0-1.39,1.13,0,1.13S175.14,395.09,173.75,395.09Z" style="fill:#fff"></path><path d="M170,394.52c-1.39,0-1.4,1.13,0,1.13S171.4,394.52,170,394.52Z" style="fill:#fff"></path></g><g id="freepik--Shadow--inject-30"><ellipse cx="375" cy="442.72" rx="188.46" ry="16.29" style="fill:#ebebeb"></ellipse></g><g id="freepik--Water--inject-30"><path d="M698.18,263.31H329.43c-27.84,0-.2,7.51,22.85,8.31s92.79,4.81,92.55,10S408,292.89,408,300.69s106.72,14,111.45,18.52-11.48,5.93-4.37,10.67c5.33,3.56,80.73,7,112.17,11.93,10.48,1.65-6.38,9.93,10.4,16.79,7.54,3.08,60.58,5.61,60.58,5.61Z" style="fill:#ebebeb"></path><path d="M698.18,263.31H373.05c-24.54,0-.17,7.51,20.15,8.31s81.81,4.81,81.6,10-32.51,11.25-32.51,19.05,94.09,14,98.26,18.52-10.12,5.93-3.85,10.67c4.69,3.56,71.18,7,98.9,11.93,9.23,1.65-5.63,9.93,9.17,16.79,6.64,3.08,53.41,5.61,53.41,5.61Z" style="fill:#c7c7c7"></path><path d="M381,265.21a21.27,21.27,0,0,0,3.55.62c1.19.15,2.39.27,3.59.4q3.6.34,7.2.63L409.73,268l28.83,2.37c9.6.91,19.21,1.74,28.78,3,2.39.34,4.78.68,7.16,1.23a20,20,0,0,1,3.45,1.24,7.72,7.72,0,0,1,3,2.17,2.51,2.51,0,0,1,.5,1.86,3.68,3.68,0,0,1-.81,1.71,11.67,11.67,0,0,1-2.8,2.36,42.86,42.86,0,0,1-6.45,3.26,47.72,47.72,0,0,0,6.31-3.48,11.75,11.75,0,0,0,2.64-2.37,3.2,3.2,0,0,0,.68-1.53,2,2,0,0,0-.47-1.52,7.25,7.25,0,0,0-2.84-2,19.38,19.38,0,0,0-3.37-1.14c-2.33-.49-4.72-.78-7.11-1.07-9.56-1.12-19.17-2-28.77-2.79l-28.81-2.61c-4.79-.46-9.59-.93-14.39-1.44-2.39-.27-4.79-.56-7.18-.86-1.2-.16-2.39-.32-3.58-.51A20.94,20.94,0,0,1,381,265.21Z" style="fill:#fff"></path><path d="M483.51,298.28a41.84,41.84,0,0,0,7.13,1.31c2.4.29,4.82.5,7.23.69,4.83.36,9.67.62,14.51.84,9.68.48,19.37.81,29,1.17s19.38.76,29.06,1.4c2.42.17,4.84.36,7.26.6a64.6,64.6,0,0,1,7.25,1,11.09,11.09,0,0,1,1.81.56,4.58,4.58,0,0,1,1.72,1.07,1.57,1.57,0,0,1,.32.57,1.29,1.29,0,0,1,0,.73,2.31,2.31,0,0,1-.68.94,8.34,8.34,0,0,1-1.64,1,68.73,68.73,0,0,1-6.8,2.71c-2.27.83-4.54,1.66-6.72,2.66a24,24,0,0,0-3.12,1.7,5.61,5.61,0,0,0-2.23,2.4,1.78,1.78,0,0,0-.11.72,1.47,1.47,0,0,0,0,.36.7.7,0,0,0,.11.27,3.28,3.28,0,0,0,1.21,1,17.63,17.63,0,0,0,3.31,1.23,69.06,69.06,0,0,0,7.06,1.48c9.54,1.54,19.21,2.33,28.85,3.25s19.32,1.65,29,2.82c2.41.31,4.81.65,7.2,1.08,1.19.22,2.39.47,3.56.78a15.48,15.48,0,0,1,1.75.56,4.06,4.06,0,0,1,1.58,1,7.05,7.05,0,0,1,1.82,3.15,8.6,8.6,0,0,1,.11,3.64,16.59,16.59,0,0,1-2.91,6.61A16.35,16.35,0,0,0,653,341a8.42,8.42,0,0,0-.16-3.57,7,7,0,0,0-1.82-3,3.86,3.86,0,0,0-1.51-.88,17,17,0,0,0-1.72-.52c-1.17-.29-2.36-.52-3.55-.72-2.39-.39-4.79-.69-7.2-.95-9.62-1.06-19.29-1.75-29-2.54s-19.33-1.61-28.94-3.11a70.54,70.54,0,0,1-7.16-1.49,17.61,17.61,0,0,1-3.5-1.3,4,4,0,0,1-1.57-1.3,1.76,1.76,0,0,1-.24-.56,3.31,3.31,0,0,1-.06-.54,2.9,2.9,0,0,1,.16-1.06,6.4,6.4,0,0,1,2.59-2.88,23,23,0,0,1,3.25-1.79c2.23-1,4.52-1.87,6.79-2.71s4.58-1.62,6.7-2.66a7,7,0,0,0,1.43-.9,1.22,1.22,0,0,0,.39-.49c.05-.13,0-.21-.11-.38a4.07,4.07,0,0,0-1.35-.81,10,10,0,0,0-1.66-.51,64.45,64.45,0,0,0-7.13-1.06c-2.4-.25-4.81-.44-7.23-.61-9.65-.69-19.34-1.07-29-1.54s-19.37-.88-29-1.45c-4.84-.31-9.68-.64-14.51-1.09-2.41-.23-4.82-.48-7.23-.81A42.87,42.87,0,0,1,483.51,298.28Z" style="fill:#fff"></path><path d="M550.59,292.26q14.53.27,29,1.44c4.84.37,9.66.89,14.47,1.53a87.36,87.36,0,0,1,14.32,2.89,13.87,13.87,0,0,1,3.4,1.61,4,4,0,0,1,.76.68,3.65,3.65,0,0,1,.32.45l.22.45a4.23,4.23,0,0,1,.37,2,5.37,5.37,0,0,1-1.89,3.39,18,18,0,0,1-3,2.18c-1,.63-2.13,1.2-3.18,1.78-.52.3-1,.6-1.53.92a4.52,4.52,0,0,0-1.24,1.06.52.52,0,0,0-.11.48,1,1,0,0,0,.41.46,6.22,6.22,0,0,0,1.55.64,31.07,31.07,0,0,0,3.5.75c4.76.75,9.6,1.1,14.43,1.41s9.66.54,14.5.74a233.16,233.16,0,0,1-29-1.39,30.45,30.45,0,0,1-3.62-.71,6.32,6.32,0,0,1-1.79-.73,1.81,1.81,0,0,1-.75-.89,1.38,1.38,0,0,1,.2-1.24,5.16,5.16,0,0,1,1.48-1.31c.52-.35,1-.66,1.58-1,1.06-.6,2.12-1.17,3.14-1.79A17.12,17.12,0,0,0,611,306a4.45,4.45,0,0,0,1.57-2.79,3.1,3.1,0,0,0-.3-1.54c-.05-.12-.12-.25-.18-.37a1.7,1.7,0,0,0-.21-.28,3.37,3.37,0,0,0-.59-.53,13,13,0,0,0-3.16-1.45A85.58,85.58,0,0,0,594,296.13c-4.79-.68-9.6-1.18-14.42-1.67s-9.64-.87-14.47-1.22S555.42,292.56,550.59,292.26Z" style="fill:#fff"></path></g><g id="freepik--Floor--inject-30"><polygon points="52.21 263.34 132.91 263.1 213.6 263.01 375 262.84 536.4 263.01 617.09 263.1 697.79 263.34 617.09 263.59 536.4 263.67 375 263.84 213.6 263.67 132.91 263.58 52.21 263.34" style="fill:#263238"></polygon></g><g id="freepik--Birds--inject-30"><path d="M412.43,193.72a25.14,25.14,0,0,0-2-2.35,11.85,11.85,0,0,0-2.49-2A2.37,2.37,0,0,0,407,189a1.76,1.76,0,0,0-.33,0l-.23,0-.42.1a13.77,13.77,0,0,0-1.53.54c-1,.4-1.89.86-2.83,1.34l.82.1a23.6,23.6,0,0,0-2.57-2,11.25,11.25,0,0,0-1.44-.83,5,5,0,0,0-.82-.33,2.4,2.4,0,0,0-.48-.11,4.47,4.47,0,0,0-.52,0,5.68,5.68,0,0,0-1.66.54,14,14,0,0,0-1.43.78,19.26,19.26,0,0,0-2.58,1.9c1-.44,1.93-.89,2.9-1.27.48-.2,1-.39,1.45-.54a5.48,5.48,0,0,1,1.39-.29,2.9,2.9,0,0,1,1.17.44,10.83,10.83,0,0,1,1.25.83c.82.6,1.62,1.27,2.39,1.94l.38.34.43-.24c.88-.49,1.79-.95,2.69-1.37a13.06,13.06,0,0,1,1.35-.58l.32-.09.14,0h.06a1.86,1.86,0,0,1,.54.14,15.36,15.36,0,0,1,2.51,1.55C410.78,192.48,411.6,193.11,412.43,193.72Z" style="fill:#263238"></path><path d="M388.77,202.78a19.52,19.52,0,0,0-1.69-1.95,9.71,9.71,0,0,0-2.06-1.67,2.12,2.12,0,0,0-.76-.27,1.2,1.2,0,0,0-.27,0l-.2,0-.35.08a12.47,12.47,0,0,0-1.26.44c-.81.33-1.57.72-2.35,1.12l.68.08a20.25,20.25,0,0,0-2.13-1.66,9.37,9.37,0,0,0-1.2-.69,5.35,5.35,0,0,0-.68-.28,2.18,2.18,0,0,0-.4-.08,3.05,3.05,0,0,0-.43,0,4.66,4.66,0,0,0-1.38.44c-.41.2-.8.42-1.18.65a16.64,16.64,0,0,0-2.14,1.58c.81-.36,1.6-.74,2.4-1.06.4-.16.8-.32,1.21-.44a4.3,4.3,0,0,1,1.15-.24,2.38,2.38,0,0,1,1,.36,11,11,0,0,1,1,.69c.68.5,1.35,1.06,2,1.61l.32.28.36-.2c.72-.4,1.48-.78,2.23-1.14.37-.17.75-.34,1.11-.47a1.62,1.62,0,0,1,.27-.08l.12,0h.05a1.33,1.33,0,0,1,.44.12,12.91,12.91,0,0,1,2.09,1.28C387.4,201.75,388.08,202.27,388.77,202.78Z" style="fill:#263238"></path><path d="M424.34,146.71a18.34,18.34,0,0,0-2.37-1,9.71,9.71,0,0,0-2.59-.6,2.14,2.14,0,0,0-.8.09,2.41,2.41,0,0,0-.25.11l-.15.12a2.15,2.15,0,0,0-.28.23,9.35,9.35,0,0,0-.94.95,24.57,24.57,0,0,0-1.62,2l.64-.23a21.74,21.74,0,0,0-2.64-.56,10.32,10.32,0,0,0-1.38-.09,4.56,4.56,0,0,0-.73.05,3.24,3.24,0,0,0-.4.09c-.13,0-.27.13-.39.19a5,5,0,0,0-1.05,1c-.28.36-.53.73-.78,1.1a17.56,17.56,0,0,0-1.22,2.36c.56-.68,1.11-1.36,1.69-2,.29-.33.58-.64.89-.93a4.25,4.25,0,0,1,.93-.72,2.31,2.31,0,0,1,1-.1,11.09,11.09,0,0,1,1.24.16c.82.15,1.67.36,2.48.58l.41.11.24-.33c.47-.69,1-1.36,1.5-2a10.19,10.19,0,0,1,.8-.91,1.75,1.75,0,0,1,.2-.19l.1-.08s0,0,0,0a1.28,1.28,0,0,1,.46-.09,12.37,12.37,0,0,1,2.44.24C422.66,146.38,423.5,146.56,424.34,146.71Z" style="fill:#263238"></path><path d="M393.69,185a29,29,0,0,0-3.19-2.18,14.81,14.81,0,0,0-3.63-1.63,3.41,3.41,0,0,0-1.2-.11,2.34,2.34,0,0,0-.4.1l-.26.12a5.42,5.42,0,0,0-.48.26,18.5,18.5,0,0,0-1.66,1.12c-1.05.79-2,1.64-3,2.52l1-.14a31.27,31.27,0,0,0-3.72-1.59,15.86,15.86,0,0,0-2-.54,6.24,6.24,0,0,0-1.09-.14,4.24,4.24,0,0,0-.61,0,6.45,6.45,0,0,0-.63.16,7.1,7.1,0,0,0-1.83,1.17c-.52.44-1,.91-1.47,1.39a25.7,25.7,0,0,0-2.49,3.11c1-.84,2-1.68,3.08-2.45a18,18,0,0,1,1.57-1.11,6.66,6.66,0,0,1,1.58-.79,3.55,3.55,0,0,1,1.55.16,15.91,15.91,0,0,1,1.76.6c1.17.46,2.36,1,3.49,1.57l.57.29.44-.43c.89-.86,1.85-1.7,2.79-2.5a18.08,18.08,0,0,1,1.44-1.12l.35-.22.17-.09s0,0,.06,0a1.75,1.75,0,0,1,.69,0,18.27,18.27,0,0,1,3.52,1.06C391.32,184.07,392.49,184.57,393.69,185Z" style="fill:#263238"></path><path d="M229.34,232.68a19,19,0,0,0-2.17-1.39,9.65,9.65,0,0,0-2.46-1,2.27,2.27,0,0,0-.8,0,1,1,0,0,0-.27.08l-.17.08-.31.18c-.39.25-.74.52-1.09.79-.68.55-1.3,1.14-1.93,1.74l.67-.12a20.08,20.08,0,0,0-2.51-1c-.44-.12-.88-.24-1.34-.32a5.83,5.83,0,0,0-.74-.06,1.84,1.84,0,0,0-.4,0,2,2,0,0,0-.42.12,4.44,4.44,0,0,0-1.19.81,12.26,12.26,0,0,0-1,1,16.46,16.46,0,0,0-1.6,2.13c.67-.58,1.32-1.17,2-1.7a12,12,0,0,1,1-.77,3.89,3.89,0,0,1,1-.56,2.38,2.38,0,0,1,1,.06,11.57,11.57,0,0,1,1.19.37c.79.28,1.59.63,2.36,1l.38.17.29-.29c.58-.59,1.2-1.17,1.81-1.73a9.34,9.34,0,0,1,.94-.77,1.19,1.19,0,0,1,.23-.16l.1-.06s0,0,.05,0a1.3,1.3,0,0,1,.46,0,13.31,13.31,0,0,1,2.37.64C227.74,232.08,228.53,232.38,229.34,232.68Z" style="fill:#263238"></path><path d="M250.47,229.25a27.75,27.75,0,0,0-2.4-3,14.56,14.56,0,0,0-3-2.63,3.4,3.4,0,0,0-1.12-.46,1.38,1.38,0,0,0-.41,0l-.29,0-.53.1c-.68.16-1.3.37-1.92.58-1.23.45-2.4,1-3.59,1.53l1,.16a29.59,29.59,0,0,0-3.08-2.62,16.11,16.11,0,0,0-1.74-1.11,7.19,7.19,0,0,0-1-.46,3.39,3.39,0,0,0-.59-.15,4.63,4.63,0,0,0-.65,0,7.19,7.19,0,0,0-2.09.57c-.63.27-1.23.58-1.81.9a23.8,23.8,0,0,0-3.3,2.22c1.23-.49,2.44-1,3.66-1.42a16.2,16.2,0,0,1,1.83-.59,6.39,6.39,0,0,1,1.74-.29,3.64,3.64,0,0,1,1.44.61,13.68,13.68,0,0,1,1.5,1.1c1,.79,1.95,1.66,2.86,2.54l.46.43.55-.27c1.11-.56,2.27-1.08,3.41-1.56a17.92,17.92,0,0,1,1.71-.64l.4-.1.18,0s0,0,.07,0a1.88,1.88,0,0,1,.66.21,18.24,18.24,0,0,1,3,2.05C248.5,227.62,249.47,228.44,250.47,229.25Z" style="fill:#263238"></path><path d="M445.17,165.73a28.12,28.12,0,0,0-2.4-3,15.21,15.21,0,0,0-3-2.63,3.31,3.31,0,0,0-1.12-.46,2.62,2.62,0,0,0-.41,0l-.29,0a4.51,4.51,0,0,0-.53.1,16.47,16.47,0,0,0-1.92.58c-1.23.44-2.4,1-3.58,1.52l1,.16a30.75,30.75,0,0,0-3.07-2.62,18,18,0,0,0-1.75-1.11,6.47,6.47,0,0,0-1-.45,3.65,3.65,0,0,0-.59-.16,4.78,4.78,0,0,0-.66,0,7.21,7.21,0,0,0-2.08.57c-.64.27-1.23.58-1.82.9a26.44,26.44,0,0,0-3.3,2.22c1.23-.49,2.44-1,3.67-1.42.61-.22,1.22-.43,1.83-.59a6.35,6.35,0,0,1,1.74-.28,3.43,3.43,0,0,1,1.43.6,15.12,15.12,0,0,1,1.5,1.1c1,.79,2,1.67,2.87,2.54l.45.44.55-.28c1.12-.55,2.27-1.07,3.41-1.56a17.92,17.92,0,0,1,1.71-.64l.4-.1.19,0h.06a2.16,2.16,0,0,1,.67.21,19.4,19.4,0,0,1,3,2.06C443.19,164.09,444.16,164.92,445.17,165.73Z" style="fill:#263238"></path></g><g id="freepik--Trees--inject-30"><path d="M589.4,175.23s4.18,61.76,29,141.81c14.31,46.16,44.37,94.08,69.48,130.43H646.11s-36-89.27-44-129.4C584.32,228.61,586.25,174,586.25,174Z" style="fill:#FFC727"></path><path d="M589.4,175.23s4.18,61.76,29,141.81c14.31,46.16,44.37,94.08,69.48,130.43H646.11s-36-89.27-44-129.4C584.32,228.61,586.25,174,586.25,174Z" style="opacity:0.30000000000000004"></path><path d="M645.75,391.33c-3.42.21-6.84.31-10.26.39s-6.85.1-10.27.11h-.31l-.36-1h.67c3.42,0,6.84,0,10.27.12S642.33,391.13,645.75,391.33Z" style="fill:#FFC727"></path><path d="M661.1,406.47c-3.27,0-6.52,0-9.78-.12l-5.13-.13c-1.72-.09-3.43-.14-5.14-.25,1.71-.11,3.42-.16,5.14-.25l5.13-.13c3.06-.09,6.11-.11,9.18-.12Z" style="fill:#FFC727"></path><path d="M677.45,432.08h-.28c-3.42.09-6.84.1-10.26.11s-6.85,0-10.27-.11l-5.13-.14c-1.72-.08-3.43-.13-5.14-.24,1.71-.12,3.42-.17,5.14-.25l5.13-.14c3.42-.09,6.84-.1,10.27-.11s6.69,0,10,.11C677.11,431.57,677.27,431.83,677.45,432.08Z" style="fill:#FFC727"></path><path d="M657,399.71h-.4l-5.13-.14c-1.72-.08-3.43-.13-5.14-.24,1.71-.11,3.42-.16,5.14-.25l5.07-.14C656.73,399.19,656.88,399.45,657,399.71Z" style="fill:#FFC727"></path><path d="M634.79,358.31c-1.54-.07-3.07-.12-4.61-.23,1.47-.09,2.93-.14,4.4-.21Z" style="fill:#FFC727"></path><path d="M626.92,352.26c-3.42.21-6.85.31-10.27.39-1.7,0-3.41.07-5.11.09l-.3-.95c1.8,0,3.61,0,5.41.09C620.07,352,623.5,352.06,626.92,352.26Z" style="fill:#FFC727"></path><path d="M609.13,310.86c-2.79.17-5.59.27-8.38.34,0-.23-.09-.46-.13-.68C603.45,310.6,606.3,310.69,609.13,310.86Z" style="fill:#FFC727"></path><path d="M608.2,281c-1.52-.07-3-.11-4.56-.22,1.48-.1,3-.15,4.45-.21C608.13,280.7,608.17,280.85,608.2,281Z" style="fill:#FFC727"></path><path d="M614.43,316.6c-3.42.21-6.85.3-10.27.38l-2.27,0c-.06-.29-.12-.58-.17-.87l2.44.06C607.58,316.3,611,316.4,614.43,316.6Z" style="fill:#FFC727"></path><path d="M595.41,234.21c-2,.12-4,.21-6,.27,0-.18,0-.35,0-.53C591.37,234,593.39,234.09,595.41,234.21Z" style="fill:#FFC727"></path><path d="M593.89,238.49c-1.35.08-2.7.14-4,.19,0-.13,0-.26,0-.39C591.16,238.34,592.53,238.41,593.89,238.49Z" style="fill:#FFC727"></path><path d="M628.82,105.56l-15,1.17L629,111.26a58.78,58.78,0,0,1-3.73,19.53l-15.92-1.69,13.34,7.6a60.48,60.48,0,0,1-3.56,6.21l-9.51-1.42,6.81,5.3a81.87,81.87,0,0,1-9.24,10.38l-9-5.21,6.59,7.43a125.85,125.85,0,0,1-21.9,15.44L607.76,56.32a97.21,97.21,0,0,1,13.55,21.49l-6.12,1.88L622.71,81c1,2.48,2,5.11,2.88,7.86L610.68,92l16.71,3.54A68.53,68.53,0,0,1,628.82,105.56Z" style="fill:#37474f"></path><path d="M666.43,150l-7.32-4.6,5.57,7.78a46.64,46.64,0,0,1-7.3,9.25l-9.92-9.64,5,13.78a49,49,0,0,1-5.85,3.68l-6.76-7.06,2.57,9.09A62.55,62.55,0,0,1,631,175.85L624.09,162l.7,15q-3,.42-6.36.63l-3.1-9.59-2.4,9.76a146.88,146.88,0,0,1-29.7-3.11L672,128.34A51.48,51.48,0,0,1,666.43,150Z" style="fill:#455a64"></path><path d="M583.26,174.78a171.57,171.57,0,0,1-30.46-20.92l8.25-9.41-11.83,6.17a113.65,113.65,0,0,1-8.27-8.57l8.2-10.29L537,137.22q-3-3.84-5.4-7.68l16-12.46-21,3.41a83.79,83.79,0,0,1-6.44-18.59h0l21.87-13-23.37,3.61c-.18-1.71-.3-3.39-.37-5.06l12.93-3.68-13-1a93,93,0,0,1,1-12.31l19.5-2.09L520.31,64A101.45,101.45,0,0,1,533,31.91Z" style="fill:#455a64"></path><path d="M545.38,172.82,546,161.4,540.4,172h0c-1.85-.35-3.71-.73-5.59-1.16l1.94-8.42-4.92,7.71c-3-.76-6.09-1.63-9.11-2.64l3.74-10.54-8.92,8.68a87.69,87.69,0,0,1-16.16-8.14L511,142.31,496.46,154a59.16,59.16,0,0,1-10.38-10.3l10.2-12.83-13.38,8.31a52.65,52.65,0,0,1-3.69-6.94l16.68-15-20,5.21a64,64,0,0,1-1.58-10.5l13.76-5.43-13.95.3a101.13,101.13,0,0,1,3.08-24.18s45.08,71.33,106,92.19A185.15,185.15,0,0,1,545.38,172.82Z" style="fill:#37474f"></path><path d="M560.68,192.19l-3.91-4.08,2.48,4.77c-1.35.64-2.69,1.21-4,1.71l-3.73-5.92.34,7.05a47.13,47.13,0,0,1-5.87,1.36l-2.58-11-2,11.45a44.22,44.22,0,0,1-12.68-1.08l-.93-8.71-2.16,7.88a52.68,52.68,0,0,1-5-1.82l2.4-10.45L517,192.12a64.07,64.07,0,0,1-8.21-5.08l3-6.8L507,185.68c-.93-.72-1.82-1.45-2.66-2.17l2.23-3.93-3.83,2.53a72.54,72.54,0,0,1-10.5-11.63c34.63,17.12,91.19,4.15,91.19,4.15C575.53,182.91,567.91,188.57,560.68,192.19Z" style="fill:#455a64"></path><path d="M642.59,198.47l-2.87-4,1,4.86a39.28,39.28,0,0,1-5.37,1.74l-2.07-7.9-.66,8.49a37.8,37.8,0,0,1-8.56.5l-1.3-8-2.94,7.55a40.5,40.5,0,0,1-5.73-1.41l1.28-6.85-3.6,6a44.21,44.21,0,0,1-4.41-2l2.13-8.43-6.76,5.8q-2.16-1.36-4.38-3l2.69-4.42-4.42,3.06a96.86,96.86,0,0,1-15-15.48s43.58,18.14,74.31,14.22A44.63,44.63,0,0,1,642.59,198.47Z" style="fill:#37474f"></path><path d="M583,198.16l-5.09-1.76,4.36,3.87a23.37,23.37,0,0,1-2.08,4.09L575.94,203l3.24,2.73q-.64.87-1.35,1.65l-5.55-3.27,3.6,5.13a23.33,23.33,0,0,1-5.51,3.44l-3.72-3.2,1.67,4c-1,.33-1.88.6-2.8.83L563,210.69l.86,4a33.9,33.9,0,0,1-9.52.43c19.72-13,28.81-40.52,28.81-40.52C585.07,184.77,584.7,192.42,583,198.16Z" style="fill:#37474f"></path><circle cx="586.59" cy="189.32" r="13.52" style="fill:#FFC727"></circle><circle cx="586.59" cy="189.32" r="13.52" style="opacity:0.4"></circle><path d="M590.88,178a13.52,13.52,0,1,1-10.43-16A13.51,13.51,0,0,1,590.88,178Z" style="fill:#FFC727"></path><path d="M590.88,178a13.52,13.52,0,1,1-10.43-16A13.51,13.51,0,0,1,590.88,178Z" style="opacity:0.30000000000000004"></path><path d="M604.6,178.37a13.51,13.51,0,1,1-10.42-16A13.51,13.51,0,0,1,604.6,178.37Z" style="fill:#FFC727"></path><path d="M604.6,178.37a13.51,13.51,0,1,1-10.42-16A13.51,13.51,0,0,1,604.6,178.37Z" style="opacity:0.2"></path><path d="M154.16,167.71s.8,73.62-23.64,152.43c-14.09,45.45-43.68,92.63-68.41,128.41h41.13s35.49-87.89,43.34-127.4c17.5-88.07,10.67-154.69,10.67-154.69Z" style="fill:#FFC727"></path><path d="M154.16,167.71s.8,73.62-23.64,152.43c-14.09,45.45-43.68,92.63-68.41,128.41h41.13s35.49-87.89,43.34-127.4c17.5-88.07,10.67-154.69,10.67-154.69Z" style="opacity:0.30000000000000004"></path><path d="M114,421.12c-.12.32-.25.64-.36,1-2,0-4-.05-6-.1-3.42-.08-6.85-.17-10.27-.38,3.42-.21,6.85-.3,10.27-.38C109.72,421.16,111.84,421.14,114,421.12Z" style="fill:#FFC727"></path><path d="M110.33,406c-1.71.11-3.42.16-5.13.25l-5.13.13c-3.43.1-6.85.11-10.27.12h-.29c.21-.33.41-.67.61-1,3.31,0,6.63,0,9.95.12l5.13.13C106.91,405.81,108.62,405.86,110.33,406Z" style="fill:#FFC727"></path><path d="M105,399.32c-1.71.11-3.42.16-5.13.24l-5.13.14-1.2,0,.48-.81h.72l5.13.14C101.59,399.16,103.3,399.21,105,399.32Z" style="fill:#FFC727"></path><path d="M135.46,360.94l-.2.59c-2.27-.06-4.53-.15-6.8-.29C130.79,361.1,133.12,361,135.46,360.94Z" style="fill:#FFC727"></path><path d="M138.37,351.81c-.09.3-.19.6-.29.9-1.12,0-2.23,0-3.35-.06-3.42-.08-6.84-.18-10.26-.39,3.42-.2,6.84-.3,10.26-.38Z" style="fill:#FFC727"></path><path d="M148.58,310.58c0,.18-.06.37-.1.55-2.07-.06-4.15-.14-6.22-.27C144.37,310.74,146.47,310.65,148.58,310.58Z" style="fill:#FFC727"></path><path d="M152.9,270.25c-1.71.11-3.42.16-5.13.25l-4.71.13.15-.74,4.56.12C149.48,270.09,151.19,270.14,152.9,270.25Z" style="fill:#FFC727"></path><path d="M157.64,233.56c0,.1,0,.21,0,.31-1,0-2-.1-3.06-.16C155.58,233.65,156.61,233.6,157.64,233.56Z" style="fill:#FFC727"></path><path d="M149,265.31c-1.64.11-3.29.16-4.93.23l.09-.47C145.76,265.15,147.38,265.2,149,265.31Z" style="fill:#FFC727"></path><path d="M102.57,120.59l12.28-3-10.91,7.55A49.46,49.46,0,0,0,112,139.84l12.3-5.5-8.69,9.55a51.66,51.66,0,0,0,4.47,4l7.23-3.61-4.06,6a68.87,68.87,0,0,0,10.09,5.88l5.86-6.51-3.33,7.66A105.49,105.49,0,0,0,157.42,164l-50.84-88.3a81.85,81.85,0,0,0-5.24,20.72l5.39-.09-5.69,3c-.18,2.25-.28,4.61-.25,7L113.56,105l-12.45,7.19A57.92,57.92,0,0,0,102.57,120.59Z" style="fill:#455a64"></path><path d="M84.06,165.92l4.66-5.59L86.29,168a39.11,39.11,0,0,0,8.25,5.5L100,163.2l-.44,12.34a40.57,40.57,0,0,0,5.65,1.41l3.56-7.41.32,8a52.42,52.42,0,0,0,10.07-.09l1.94-12.92,3.35,12.16q2.53-.46,5.24-1.17V167l4.46,7.18a123.31,123.31,0,0,0,23-10.23L74,150.06A43.31,43.31,0,0,0,84.06,165.92Z" style="fill:#37474f"></path><path d="M157.07,164.08A144.36,144.36,0,0,0,176,139.4L166.92,134,178,135.88a97.56,97.56,0,0,0,4.38-9l-9.24-6.09L184.29,122q1.38-3.84,2.32-7.56l-16-5.79,17.7-2.75a70.53,70.53,0,0,0,.3-16.55h0L167.68,84.6l19.64-3.2c-.3-1.42-.64-2.79-1-4.15L175,77.68l10.14-4.21a78.94,78.94,0,0,0-4-9.6L165,67.29,178.53,59A85.4,85.4,0,0,0,160,36.68Z" style="fill:#37474f"></path><path d="M186.86,152.64l-3.45-9,7.21,7h0q2.09-1.14,4.16-2.39L191.05,142l5.95,4.89c2.23-1.41,4.44-2.9,6.6-4.49L197.86,135l9.4,4.62a73.53,73.53,0,0,0,10.8-10.73l-11.64-9.61,14.66,5.54a49.36,49.36,0,0,0,5.61-10.94l-11.5-7.61,12.87,3.16a44.25,44.25,0,0,0,1.14-6.51l-17.26-7.67,17.33-1a54.29,54.29,0,0,0-1.48-8.8l-12.42-.76,11.24-3.4a85.06,85.06,0,0,0-8.77-18.54s-17.46,68.81-60.77,101.39A155.81,155.81,0,0,0,186.86,152.64Z" style="fill:#455a64"></path><path d="M179.67,172.12l2.07-4.28-.75,4.47c1.25.16,2.47.26,3.66.31l1.43-5.7,1.57,5.72a40.54,40.54,0,0,0,5-.44l-.79-9.44,4.56,8.65a37.34,37.34,0,0,0,9.86-4.17L204.81,160l3.78,5.73A41.74,41.74,0,0,0,212.1,163l-4.64-7.73,7.13,5.39a52.87,52.87,0,0,0,5.24-6.2l-4.14-4.67,5.24,3.12c.55-.82,1.07-1.64,1.55-2.43l-2.8-2.57,3.72,1a61.84,61.84,0,0,0,5.37-12C205.53,159.64,156.9,164,156.9,164,165.37,168.57,172.94,171.11,179.67,172.12Z" style="fill:#37474f"></path><path d="M115.78,198.5l1.25-4,.49,4.15a34.25,34.25,0,0,0,4.75,0l-.4-6.86,2.74,6.61a31.09,31.09,0,0,0,7-1.83l-1.05-6.75,4.32,5.28a34.6,34.6,0,0,0,4.22-2.62l-2.82-5.15,4.46,3.89c1-.82,2-1.73,3-2.72l-3.91-6.19,6.93,2.88c.91-1.11,1.82-2.29,2.71-3.58l-3.31-2.84,4.34,1.3a81.58,81.58,0,0,0,7.93-16.28s-30.14,25.87-55.74,30.76A37.6,37.6,0,0,0,115.78,198.5Z" style="fill:#455a64"></path><path d="M169.9,191.42l4.47-4.42-2.64,6.27a28.24,28.24,0,0,0,4.26,3.26l3.76-3.53-2,4.51a24.13,24.13,0,0,0,2.26,1.05l4.18-6.24L183,199.54a27.12,27.12,0,0,0,7.54.83l2.29-5.24.26,5.05c1.17-.13,2.29-.31,3.37-.54l.81-5.11,1.11,4.64a39,39,0,0,0,10.24-4.36c-27.3-3.66-50.77-28.09-50.77-28.09C160.92,178.39,165.17,186.26,169.9,191.42Z" style="fill:#455a64"></path><path d="M145.38,183.39a10.22,10.22,0,1,0,7.88-12.12A10.22,10.22,0,0,0,145.38,183.39Z" style="fill:#FFC727"></path><path d="M145.38,183.39a10.22,10.22,0,1,0,7.88-12.12A10.22,10.22,0,0,0,145.38,183.39Z" style="opacity:0.4"></path><path d="M152.13,172.68A10.22,10.22,0,1,0,160,160.57,10.22,10.22,0,0,0,152.13,172.68Z" style="fill:#FFC727"></path><path d="M152.13,172.68A10.22,10.22,0,1,0,160,160.57,10.22,10.22,0,0,0,152.13,172.68Z" style="opacity:0.30000000000000004"></path><path d="M141.75,173a10.22,10.22,0,1,0,7.88-12.11A10.22,10.22,0,0,0,141.75,173Z" style="fill:#FFC727"></path><path d="M141.75,173a10.22,10.22,0,1,0,7.88-12.11A10.22,10.22,0,0,0,141.75,173Z" style="opacity:0.2"></path></g><g id="freepik--Plants--inject-30"><path d="M610.87,428.69c-2.53.09-5.35.24-7.45-1.41-1.94-1.51-3.66-3.77-3.41-6.37.08-.74.25-1.19,1-.88,1.21.48,2.14,1.82,3,2.75a25.19,25.19,0,0,0,3.52,3.33c.9.69,1.87,1.29,2.79,2l.34.26.13.09h.08a.12.12,0,0,1,.1.05l0,0A.14.14,0,0,1,610.87,428.69Z" style="fill:#263238"></path><path d="M611,428.52c-2.23,0-4.63.07-6.41-1.44a10.47,10.47,0,0,1-2.07-2.52c-.25-.41-1-1.66-.71-2.16.58-.9,3.23,2.77,3.6,3.12a10.87,10.87,0,0,0,4.92,2.55l.34.26a12.28,12.28,0,0,1-3.69-1.42c-1.58-.94-2.46-2.34-3.69-3.64-.27-.28-1.08-1.23-1.38-.64-.2.39.54,1.61.7,1.88a10.46,10.46,0,0,0,2,2.38c1.77,1.55,4.17,1.5,6.41,1.59Z" style="fill:#fff"></path><path d="M612.27,430.24l-.06.29h0a.08.08,0,0,1-.05,0,.1.1,0,0,1-.13,0,.06.06,0,0,1,0-.06.06.06,0,0,1,0,0l0-.09h0v0c-.45-1.68-.62-3.42-1.09-5.1s-1-3.17-1.34-4.8c-.2-1-.92-6.2,1.36-5.55,1,.28,1.7,1.74,2.08,2.62a10.77,10.77,0,0,1,.84,3.71C614.06,424.35,612.91,427.22,612.27,430.24Z" style="fill:#263238"></path><path d="M613,423.8a12.13,12.13,0,0,0-.37-3.5c-.1-.4-.59-2.3-1.24-2.25-.41,0-.48.85-.52,1.12a11.19,11.19,0,0,0,.45,3.44,47.11,47.11,0,0,1,.84,6.9l-.06.44c0,.12,0,.24-.05.36s0,.09,0,.13a.31.31,0,0,0,0,.1.1.1,0,0,0,.13,0c0-.09,0-.19,0-.28a1.77,1.77,0,0,0,0,.23h0c0-.08,0-.16,0-.24v-.05c0-.13,0-.26,0-.39A51.24,51.24,0,0,0,613,423.8Zm-.77,5.22c-.06-1.35-.2-2.71-.39-4-.15-1.08-.36-2.15-.58-3.22a10.26,10.26,0,0,1-.29-1.83c0-.47,0-2.21.94-1.13a7,7,0,0,1,.89,3.41,17.22,17.22,0,0,1-.07,3.21C612.61,426.62,612.41,427.82,612.23,429Z" style="fill:#fff"></path><path d="M613.63,437.18h0l-.09,0c-2.32-.12-5.4.1-7.33-1.44-1.42-1.13-2.82-3.36-2.37-5.26.51-2.14,3.4.43,4.17,1.05a71,71,0,0,1,5.67,5.52l0,0h0S613.69,437.17,613.63,437.18Z" style="fill:#263238"></path><path d="M613.71,437.12l-.4-.25q-2.28-1.44-4.43-3.08c-.36-.28-3-2.6-3.36-1.77-.23.5.63,1.53.9,1.87a7.12,7.12,0,0,0,1.76,1.57c1.54,1,3.41,1.17,5.16,1.63l.25.07,0,0h0C613.69,437.17,613.73,437.15,613.71,437.12Zm-4.58-1.32a7.27,7.27,0,0,1-2-1.35c-.38-.37-1.75-1.76-1.39-2.33.19-.3.35-.14.72,0a4,4,0,0,1,.49.29,12.93,12.93,0,0,1,1.11.84c.64.51,1.28,1,1.94,1.48,1.08.78,2.18,1.52,3.31,2.22A35,35,0,0,1,609.13,435.8Z" style="fill:#fff"></path><path d="M617.86,432.41a13.8,13.8,0,0,1-4,6.94l0,0s-.09,0-.12,0a.12.12,0,0,1,0-.14l.12-.11c.39-3.15.81-6.28,1.13-9.44.08-.74.66-5.48,2.12-4.71.89.48.95,2.42,1,3.29A13.72,13.72,0,0,1,617.86,432.41Z" style="fill:#263238"></path><path d="M617,428.2c-.08-.27-.21-.54-.51-.35-.56.35-.79,2.57-.88,3.19-.39,2.54-1,5-1.6,7.47,0,.21-.1.42-.16.63l-.14.19a.1.1,0,0,0,.12,0s0,0,0-.06l.19-.26h0a16,16,0,0,0,2.29-4.47,15,15,0,0,0,.68-3.11A8.77,8.77,0,0,0,617,428.2Zm-3,10.68a.57.57,0,0,0-.08.13c0-.09,0-.17.07-.26a43.92,43.92,0,0,0,1.42-5.78c.17-1,.28-2,.48-3,.09-.41.29-1.6.64-1.79s.33.27.37.53,0,.54,0,.73A16,16,0,0,1,614.05,438.88Z" style="fill:#fff"></path><path d="M614.28,446.13h-.46l0-1.22c-.06-1.64-.12-3.29-.22-4.93-.06-.94-.12-1.87-.22-2.79a.31.31,0,0,1,0-.1l0-.22a2.42,2.42,0,0,0,0-.25,19.78,19.78,0,0,0-1.59-6c-.29-.64-.61-1.27-1-1.89l-.1-.17,0,0a1.62,1.62,0,0,0-.1-.18l-.08-.14c-1.07-1.89-2.29-3.69-3.46-5.5l-1-1.56-.06-.1a.41.41,0,0,1-.07-.11c-1.46-2.31-2.9-4.63-4.41-6.89-.06-.08.07-.16.13-.08,1,1.5,2.08,3,3.13,4.46l.43.6.82,1.17c.55.79,1.09,1.57,1.62,2.37a65.87,65.87,0,0,1,4.27,6.89c.09.18.17.37.26.55s.11.23.16.34l.18.4A21.45,21.45,0,0,1,614,438l0,.53c0,.08,0,.16,0,.24s0,.09,0,.13,0,.11,0,.17h0v.13c0,.15,0,.3,0,.45.07,1.64.11,3.29.15,4.93C614.24,445.08,614.26,445.61,614.28,446.13Z" style="fill:#263238"></path><path d="M600.46,416.34c-1.27-1.71-2.89-5.22-1-7a2,2,0,0,1,2.65-.2,5.81,5.81,0,0,1,1.75,3.18c.86,3,1.43,6,2.49,9a2,2,0,0,1,.12.31c0,.06-.07.09-.1,0s-.07-.19-.1-.29C604.22,419.81,602,418.36,600.46,416.34Z" style="fill:#263238"></path><path d="M606.34,421.22l0-.05a21.17,21.17,0,0,1-1.18-2.2,42.24,42.24,0,0,1-1.83-4.89c-.2-.64-1.11-3.77-2.23-2.52a2.84,2.84,0,0,0-.33,2.1,7.91,7.91,0,0,0,1,2.94,14.34,14.34,0,0,0,4.21,4.39l.23.17s0,0,0,.08l0,.05,0,0a.07.07,0,0,0,.1,0A.09.09,0,0,0,606.34,421.22Zm-.49-.34a16.6,16.6,0,0,1-3.57-3.58,8.84,8.84,0,0,1-1.16-2.37,6.56,6.56,0,0,1-.25-1.15,4.33,4.33,0,0,1,0-.88c0-.65.28-1.35.66-1.42s.63.19.94.73a5,5,0,0,1,.28.57c.21.48.37,1,.53,1.48.26.83.53,1.66.82,2.47.2.56.42,1.11.65,1.64a22.18,22.18,0,0,0,1.39,2.7Z" style="fill:#fff"></path><path d="M639.68,406.74c-.3,2.48-.78,4.93-1.28,7.38-.28,1.38-.58,2.77-.86,4.16a10.13,10.13,0,0,0-.35,4.63h0a.76.76,0,0,1,0,.21s0,0,0,0a.18.18,0,0,1-.32-.06l0-.1,0,0a6.13,6.13,0,0,1-.53-1.28,32.32,32.32,0,0,1-1.23-3.59,30.84,30.84,0,0,1-1.21-7.64,26.17,26.17,0,0,1,.72-6.89c.45-1.8,1.07-4.48,2.42-5.86s2.23.75,2.58,1.76C640.36,401.75,640,404.39,639.68,406.74Z" style="fill:#455a64"></path><path d="M637.47,401.48c-.91,0-1.57,2.92-1.89,4.18a25.45,25.45,0,0,0-.77,6.08,32.79,32.79,0,0,0,1.87,10.8c.05.14.09.29.15.42a.05.05,0,0,0,0,0l0,.1a.18.18,0,0,0,.32,0c-.06-.3-.1-.6-.14-.91s-.06-.54-.08-.81a43.34,43.34,0,0,1,.55-8.95C638,409,638.66,401.48,637.47,401.48ZM636.81,422c.05.4.11.8.19,1.19-.09-.29-.19-.58-.27-.86a36.44,36.44,0,0,1-1.71-9.53,26.24,26.24,0,0,1,.4-5.45,24.69,24.69,0,0,1,.7-2.85c.13-.39.79-2.84,1.35-2.71.39.08.48,2.28.48,2.33,0,.44,0,.88,0,1.32,0,.91-.07,1.82-.15,2.73-.17,2-.45,3.92-.69,5.88A34.11,34.11,0,0,0,636.81,422Z" style="fill:#fff"></path><path d="M653.92,413.58c-1.66,3.24-4.46,5.72-7.34,7.85-1.55,1.13-3.15,2.2-4.72,3.3a25.09,25.09,0,0,0-4.08,3.14l-.15.16a6.34,6.34,0,0,0-.85,1.17.1.1,0,0,1-.08.05.78.78,0,0,1-.05.14s-.07,0-.06,0,0-.11,0-.16v0a.09.09,0,0,1,0-.12s0,0,0-.05a.88.88,0,0,1,0-.16c.47-3.79,3.12-7.61,5.35-10.52a20.11,20.11,0,0,1,8.46-6.82c.87-.34,2.84-1.26,3.73-.55S654.27,412.9,653.92,413.58Z" style="fill:#455a64"></path><path d="M651.35,413.6c-.78-.79-3.1,1.16-3.69,1.61a40,40,0,0,0-4.8,4.67,34.7,34.7,0,0,0-6.13,8.88h0l-.08.11,0,.16s0,0,0,.05a.1.1,0,0,0,0,.13,1.71,1.71,0,0,1,.11-.14c.29-.35.6-.7.91-1l.15-.16a74.89,74.89,0,0,1,7.18-6.35,35.55,35.55,0,0,0,4.78-4.64C650.11,416.44,652,414.26,651.35,413.6Zm-.72,1.73c-2,3.25-5.35,5.62-8.23,8a39.47,39.47,0,0,0-5.46,5.19,36.47,36.47,0,0,1,5.67-8,51,51,0,0,1,3.9-4,20.57,20.57,0,0,1,2.36-1.89,7.69,7.69,0,0,1,1.6-.86C651.57,413.43,651,414.78,650.63,415.33Z" style="fill:#fff"></path><path d="M636.26,436.91a.2.2,0,0,1-.17.09l0,.06a.06.06,0,0,1,0,.08.05.05,0,0,1-.08,0,32.53,32.53,0,0,1-7.55-11.05,16.9,16.9,0,0,1-1.1-5.44c0-1.27-.1-3.84,1-4.77,2.19-1.86,4.19,6.05,4.49,7.25.54,2.17.9,4.39,1.4,6.57.55,2.39,1.27,4.74,2,7.08A.19.19,0,0,1,636.26,436.91Z" style="fill:#455a64"></path><path d="M636.26,436.91c-.13-.21-.24-.41-.35-.61A36.85,36.85,0,0,1,632,425.67a34,34,0,0,0-1.46-5.54c-.18-.44-.72-2.12-1.45-1.27-.37.44-.06,3.64.09,4.46a23.26,23.26,0,0,0,1.78,5.44,38.27,38.27,0,0,0,5,8.16l.18.22a.06.06,0,0,0,0-.08s0,0,0-.06A.21.21,0,0,0,636.26,436.91Zm-4.46-6.8a27.28,27.28,0,0,1-2.1-5.28,18.6,18.6,0,0,1-.46-2.22,11.61,11.61,0,0,1-.15-1.76c0-1.45.12-1.82.36-1.88s.36.13.79,1a9.17,9.17,0,0,1,.61,1.76c.23.85.42,1.71.61,2.57.37,1.73.72,3.46,1.23,5.15a28.22,28.22,0,0,0,3,6.91A43.7,43.7,0,0,1,631.8,430.11Z" style="fill:#fff"></path><path d="M646.09,429.32a10.81,10.81,0,0,1-2,4.18c-1.82,2.52-4.15,4.61-6.14,7-.29.35-.58.71-.86,1.08,0,.05-.26.57-.26.53s0-.21.1-.55h0c.31-1.67,1.36-6.7,2.67-9.27a22.36,22.36,0,0,1,2.9-4.55c.56-.63,1.89-2,2.89-1.71S646.25,428.52,646.09,429.32Z" style="fill:#455a64"></path><path d="M644.47,428.3c-1.06-.66-3.81,4.25-4.18,4.88a31.27,31.27,0,0,0-3.13,7.48c-.09.29-.16.59-.24.89s-.1.53-.1.55.23-.48.26-.53l.14-.19.72-.89c1.2-1.79,2.42-3.55,3.58-5.37a29.79,29.79,0,0,0,2.22-4.08C643.87,430.72,644.94,428.59,644.47,428.3Zm-.3,1.39c-1.52,4.26-4.61,7.63-7,11.41a1.22,1.22,0,0,1-.12.19c0-.11.07-.23.1-.34a36.07,36.07,0,0,1,2.51-6.23,33,33,0,0,1,2.11-3.51,15.53,15.53,0,0,1,1.31-1.82c.22-.25.84-.89,1.06-.78S644.27,429.4,644.17,429.69Z" style="fill:#fff"></path><path d="M656.79,394.1c-3.16,7.27-11.47,10.66-15.07,17.67l0,0c-.11.21-.21.43-.31.65a.15.15,0,0,1-.24,0,.12.12,0,0,1,0-.13,1.09,1.09,0,0,1,.08-.15,37.72,37.72,0,0,1,4.44-12.73,19.23,19.23,0,0,1,7.76-8.26c.85-.43,2.51-1.36,3.46-.63S657.18,393.2,656.79,394.1Z" style="fill:#455a64"></path><path d="M653.94,394.41c-.4-.3-1,.07-1.36.24a12.33,12.33,0,0,0-2.4,1.65,20.13,20.13,0,0,0-3.83,4.55,41.21,41.21,0,0,0-4.51,9.15,21.55,21.55,0,0,0-.63,2.22c0,.09,0,.18-.07.28a.16.16,0,0,0,.25,0c.09-.22.19-.42.3-.63a.14.14,0,0,1,0-.06,24.93,24.93,0,0,1,2.26-4.15,57.73,57.73,0,0,1,4.74-5.62C649.36,401.29,655.33,395.43,653.94,394.41Zm-.51,1.68a27.24,27.24,0,0,1-3.75,4.56c-1.31,1.47-2.64,2.92-3.93,4.41a27.18,27.18,0,0,0-2.77,3.78,21.53,21.53,0,0,0-1.74,3.5,31.2,31.2,0,0,1,1.24-3.64l0,0a56.4,56.4,0,0,1,3.07-6.12l0-.07a25.63,25.63,0,0,1,3.5-4.89,14.47,14.47,0,0,1,2.5-2.12c1-.67,1.95-1.11,2.21-.78S653.72,395.59,653.43,396.09Z" style="fill:#fff"></path><path d="M645.73,402.62c-1,2.05-1.86,4.13-2.75,6.22-.43,1-.85,2-1.27,2.93a.14.14,0,0,0,0,.06l-.46,1.06a64.4,64.4,0,0,0-3.71,9.83,29.18,29.18,0,0,0-.76,5.47l0,.57h0c0,.11,0,.21,0,.31v.18c-.06,1.59,0,3.19,0,4.75,0,2.17.23,4.32.43,6.47a1.23,1.23,0,0,0,0,.19c0,.1,0,.2,0,.29s0,.1,0,.15,0,.19,0,.28c.07.69.14,1.38.19,2.08h-.66a42.73,42.73,0,0,1-.8-6.4.66.66,0,0,1,0-.14l0-.62q0-.39,0-.78c0-.62,0-1.23-.06-1.84a45.92,45.92,0,0,1,.76-10.73,2.86,2.86,0,0,0,.07-.28l0-.13a1.94,1.94,0,0,1,.05-.2l.08-.33c.06-.2.11-.39.17-.58l0-.18a69.41,69.41,0,0,1,3.66-8.82c.24-.53.48-1.05.73-1.56l.42-.87.64-1.3,0,0c1-2,2.07-4.07,3.07-6.12C645.62,402.45,645.78,402.53,645.73,402.62Z" style="fill:#455a64"></path><path d="M66.4,428.69c-2.53.09-5.36.24-7.46-1.41-1.93-1.51-3.66-3.77-3.4-6.37.07-.74.24-1.19,1-.88,1.21.48,2.14,1.82,3,2.75a25.12,25.12,0,0,0,3.51,3.33c.9.69,1.87,1.29,2.79,2l.35.26.13.09h.07a.11.11,0,0,1,.1.05l0,0A.13.13,0,0,1,66.4,428.69Z" style="fill:#263238"></path><path d="M66.52,428.52c-2.22,0-4.63.07-6.41-1.44a10.43,10.43,0,0,1-2.06-2.52c-.26-.41-1-1.66-.71-2.16.58-.9,3.23,2.77,3.6,3.12a10.89,10.89,0,0,0,4.91,2.55l.35.26a12.23,12.23,0,0,1-3.7-1.42c-1.57-.94-2.45-2.34-3.69-3.64-.27-.28-1.07-1.23-1.38-.64-.2.39.55,1.61.71,1.88a10.16,10.16,0,0,0,2,2.38c1.78,1.55,4.17,1.5,6.41,1.59Z" style="fill:#fff"></path><path d="M67.8,430.24a2.46,2.46,0,0,0-.07.29h0a.07.07,0,0,1,0,0,.11.11,0,0,1-.14,0,.06.06,0,0,1,0-.06v0l0-.09h0v0c-.45-1.68-.63-3.42-1.1-5.1s-1-3.17-1.33-4.8c-.21-1-.93-6.2,1.35-5.55,1,.28,1.7,1.74,2.08,2.62a10.55,10.55,0,0,1,.84,3.71C69.59,424.35,68.43,427.22,67.8,430.24Z" style="fill:#263238"></path><path d="M68.52,423.8a12.12,12.12,0,0,0-.36-3.5c-.1-.4-.6-2.3-1.24-2.25-.42,0-.49.85-.52,1.12a10.61,10.61,0,0,0,.45,3.44,47.09,47.09,0,0,1,.83,6.9c0,.15,0,.29-.05.44s0,.24,0,.36,0,.09,0,.13,0,.06,0,.1a.1.1,0,0,0,.13,0,2.7,2.7,0,0,0,0-.28,1.77,1.77,0,0,1,0,.23h0a2,2,0,0,0,0-.24v-.44A51.22,51.22,0,0,0,68.52,423.8ZM67.75,429c-.06-1.35-.19-2.71-.38-4-.16-1.08-.36-2.15-.59-3.22a11.25,11.25,0,0,1-.29-1.83c0-.47.05-2.21,1-1.13a7.15,7.15,0,0,1,.88,3.41,18.12,18.12,0,0,1-.06,3.21C68.14,426.62,67.94,427.82,67.75,429Z" style="fill:#fff"></path><path d="M69.16,437.18h0l-.1,0c-2.31-.12-5.4.1-7.32-1.44-1.42-1.13-2.82-3.36-2.37-5.26.51-2.14,3.4.43,4.16,1.05a67.58,67.58,0,0,1,5.67,5.52s0,0,0,0h0S69.21,437.17,69.16,437.18Z" style="fill:#263238"></path><path d="M69.24,437.12l-.4-.25q-2.3-1.44-4.43-3.08c-.36-.28-3-2.6-3.36-1.77-.24.5.62,1.53.89,1.87a7.3,7.3,0,0,0,1.76,1.57c1.55,1,3.42,1.17,5.17,1.63l.24.07,0,0h0S69.26,437.15,69.24,437.12Zm-4.58-1.32a7,7,0,0,1-2-1.35c-.39-.37-1.76-1.76-1.39-2.33.19-.3.35-.14.72,0a4.85,4.85,0,0,1,.49.29c.39.25.74.55,1.11.84.63.51,1.28,1,1.93,1.48,1.08.78,2.19,1.52,3.32,2.22A34.5,34.5,0,0,1,64.66,435.8Z" style="fill:#fff"></path><path d="M73.39,432.41a13.74,13.74,0,0,1-4,6.94l0,0a.1.1,0,0,1-.12,0,.11.11,0,0,1,0-.14l.12-.11c.38-3.15.8-6.28,1.13-9.44.07-.74.66-5.48,2.11-4.71.9.48,1,2.42,1,3.29A14,14,0,0,1,73.39,432.41Z" style="fill:#263238"></path><path d="M72.55,428.2c-.08-.27-.22-.54-.51-.35-.57.35-.79,2.57-.89,3.19-.38,2.54-1,5-1.6,7.47l-.15.63-.14.19a.1.1,0,0,0,.12,0,.14.14,0,0,1,0-.06l.18-.26h0a16.34,16.34,0,0,0,2.3-4.47,15.67,15.67,0,0,0,.67-3.11A9,9,0,0,0,72.55,428.2Zm-3,10.68-.09.13.08-.26A47.32,47.32,0,0,0,71,433c.16-1,.27-2,.47-3,.09-.41.29-1.6.64-1.79s.34.27.37.53a6,6,0,0,1,0,.73A15.93,15.93,0,0,1,69.58,438.88Z" style="fill:#fff"></path><path d="M69.8,446.13h-.46l0-1.22c0-1.64-.12-3.29-.22-4.93,0-.94-.12-1.87-.22-2.79v-.1a1.66,1.66,0,0,1,0-.22l0-.25a19.78,19.78,0,0,0-1.59-6q-.45-1-1-1.89l-.1-.17s0,0,0,0l-.1-.18a1,1,0,0,1-.08-.14c-1.07-1.89-2.3-3.69-3.46-5.5q-.51-.78-1-1.56a.37.37,0,0,1-.06-.1,1,1,0,0,1-.08-.11c-1.46-2.31-2.89-4.63-4.41-6.89-.06-.08.08-.16.13-.08,1,1.5,2.09,3,3.14,4.46l.42.6.83,1.17c.55.79,1.09,1.57,1.62,2.37a65.78,65.78,0,0,1,4.26,6.89l.27.55.15.34c.07.13.12.26.18.4A21.22,21.22,0,0,1,69.52,438l0,.53c0,.08,0,.16,0,.24a.57.57,0,0,0,0,.13v.17h0s0,.09,0,.13,0,.3,0,.45c.06,1.64.11,3.29.14,4.93C69.76,445.08,69.78,445.61,69.8,446.13Z" style="fill:#263238"></path><path d="M56,416.34c-1.26-1.71-2.89-5.22-1-7a2,2,0,0,1,2.65-.2,5.87,5.87,0,0,1,1.75,3.18c.85,3,1.42,6,2.49,9,0,0,.09.25.12.31s-.08.09-.1,0l-.11-.29C59.74,419.81,57.49,418.36,56,416.34Z" style="fill:#263238"></path><path d="M61.87,421.22s0,0,0-.05a19.51,19.51,0,0,1-1.19-2.2,42.18,42.18,0,0,1-1.82-4.89c-.21-.64-1.12-3.77-2.24-2.52a2.79,2.79,0,0,0-.32,2.1,7.91,7.91,0,0,0,1,2.94A14.22,14.22,0,0,0,61.45,421l.22.17,0,.08,0,.05s0,0,0,0,.09,0,.09,0A0,0,0,0,0,61.87,421.22Zm-.5-.34a17.07,17.07,0,0,1-3.57-3.58,9.15,9.15,0,0,1-1.16-2.37,7.61,7.61,0,0,1-.25-1.15,5.2,5.2,0,0,1,0-.88c0-.65.29-1.35.67-1.42s.63.19.93.73a5,5,0,0,1,.28.57c.21.48.37,1,.53,1.48.26.83.53,1.66.83,2.47.2.56.41,1.11.65,1.64a20.85,20.85,0,0,0,1.39,2.7Z" style="fill:#fff"></path><path d="M123.89,409.19c-.77,2.38-1.69,4.7-2.64,7-.54,1.31-1.1,2.61-1.63,3.93a10.05,10.05,0,0,0-1.22,4.48h0a1.36,1.36,0,0,1,0,.21l0,0a.18.18,0,0,1-.3-.11.37.37,0,0,0,0-.11l0,0a6.21,6.21,0,0,1-.28-1.36,33.86,33.86,0,0,1-.54-3.75,31.34,31.34,0,0,1,.26-7.74,26.15,26.15,0,0,1,2-6.63c.77-1.68,1.89-4.2,3.47-5.3s2,1.15,2.2,2.21C125.49,404.42,124.62,406.94,123.89,409.19Z" style="fill:#455a64"></path><path d="M122.7,403.61c-.89-.17-2.08,2.57-2.63,3.75a25.52,25.52,0,0,0-1.91,5.83,32.79,32.79,0,0,0-.19,11l.06.44,0,0a.34.34,0,0,1,0,.1.19.19,0,0,0,.31.12c0-.31,0-.61,0-.92s0-.55.08-.82a42.88,42.88,0,0,1,2.22-8.68C121.78,411.12,123.88,403.84,122.7,403.61Zm-4.5,20c0,.41,0,.81,0,1.21,0-.3-.07-.6-.1-.9a36.06,36.06,0,0,1,.11-9.68,26.07,26.07,0,0,1,1.42-5.28,24.81,24.81,0,0,1,1.22-2.67c.2-.36,1.31-2.63,1.83-2.41s0,2.34,0,2.38c-.06.44-.14.87-.23,1.31-.18.89-.41,1.77-.66,2.65-.54,1.89-1.18,3.76-1.78,5.64A34.51,34.51,0,0,0,118.2,423.65Z" style="fill:#fff"></path><path d="M136.59,418.59c-2.24,2.87-5.45,4.78-8.69,6.33-1.73.82-3.5,1.57-5.25,2.35a25.77,25.77,0,0,0-4.6,2.32l-.18.13a7.06,7.06,0,0,0-1.05,1,.09.09,0,0,1-.09,0,.57.57,0,0,1-.08.13s-.07,0-.06,0a1,1,0,0,0,0-.16h0a.08.08,0,0,1,0-.12l0-.05a.88.88,0,0,1,0-.15c1.17-3.63,4.49-6.89,7.24-9.33a20.12,20.12,0,0,1,9.58-5.11c.92-.16,3-.7,3.77.16S137.06,418,136.59,418.59Z" style="fill:#455a64"></path><path d="M134.07,418.13c-.63-.93-3.28.55-3.93.89a38.62,38.62,0,0,0-5.6,3.68,34.92,34.92,0,0,0-7.69,7.56h0l-.1.09a.88.88,0,0,0,0,.15l0,.05a.08.08,0,0,0,0,.12l.13-.11c.35-.29.72-.57,1.09-.85l.18-.13a73.29,73.29,0,0,1,8.25-4.88,36.21,36.21,0,0,0,5.57-3.67C132.3,420.68,134.59,418.9,134.07,418.13Zm-1,1.56c-2.54,2.83-6.31,4.52-9.59,6.3a39.55,39.55,0,0,0-6.34,4.07,36.56,36.56,0,0,1,7.07-6.77,49.56,49.56,0,0,1,4.58-3.21,20.28,20.28,0,0,1,2.69-1.42,7.76,7.76,0,0,1,1.73-.55C134.31,418,133.46,419.21,133,419.69Z" style="fill:#fff"></path><path d="M114.85,438.18a.19.19,0,0,1-.18.06l0,.07s0,.06,0,.08a.06.06,0,0,1-.08,0,32.59,32.59,0,0,1-5.34-12.27,17,17,0,0,1-.06-5.56c.21-1.25.62-3.78,1.87-4.49,2.5-1.42,3,6.73,3.05,8,.12,2.24.06,4.48.14,6.72.09,2.45.36,4.89.62,7.33A.12.12,0,0,1,114.85,438.18Z" style="fill:#455a64"></path><path d="M114.85,438.18c-.08-.22-.15-.44-.22-.67a36.82,36.82,0,0,1-1.88-11.18,35.21,35.21,0,0,0-.39-5.71c-.1-.46-.32-2.22-1.19-1.52-.45.36-.75,3.56-.75,4.4a23.07,23.07,0,0,0,.72,5.67,38.22,38.22,0,0,0,3.41,9l.12.25s0-.05,0-.08l0-.07A.18.18,0,0,0,114.85,438.18Zm-3.09-7.52a27,27,0,0,1-1.08-5.57,19.08,19.08,0,0,1,0-2.27,12.8,12.8,0,0,1,.18-1.76c.28-1.42.47-1.77.72-1.77s.32.19.58,1.12a9.5,9.5,0,0,1,.27,1.84c.06.88.09,1.76.11,2.64,0,1.76.07,3.53.24,5.28a28.69,28.69,0,0,0,1.69,7.37A43.78,43.78,0,0,1,111.76,430.66Z" style="fill:#fff"></path><path d="M125.94,432.58a10.77,10.77,0,0,1-2.76,3.73c-2.26,2.13-4.94,3.74-7.34,5.7l-1.06.91s-.36.51-.34.46.07-.2.2-.52h0c.63-1.57,2.6-6.32,4.36-8.6a22.59,22.59,0,0,1,3.71-3.92c.68-.52,2.24-1.62,3.16-1.14S126.25,431.82,125.94,432.58Z" style="fill:#455a64"></path><path d="M124.54,431.27c-.92-.85-4.54,3.46-5,4A31.13,31.13,0,0,0,115,442c-.14.27-.27.54-.4.82s-.2.51-.21.52.32-.42.36-.46.12-.11.17-.16c.29-.26.59-.51.88-.75,1.5-1.52,3-3,4.52-4.59a28.78,28.78,0,0,0,2.94-3.59C123.5,433.54,125,431.64,124.54,431.27Zm-.56,1.3c-2.29,3.91-6,6.63-9,9.91l-.15.16c.06-.1.11-.21.16-.31a35.33,35.33,0,0,1,3.64-5.65,32.84,32.84,0,0,1,2.73-3.05,15.9,15.9,0,0,1,1.63-1.55c.26-.2,1-.71,1.18-.56S124.13,432.32,124,432.57Z" style="fill:#fff"></path><path d="M143.07,400c-4.48,6.54-13.27,8.31-18.13,14.52l0,0c-.15.19-.29.38-.43.58a.14.14,0,0,1-.24,0s0-.07,0-.12l.11-.14a37.82,37.82,0,0,1,6.76-11.67,19.23,19.23,0,0,1,9.17-6.65c.92-.27,2.72-.86,3.52,0S143.62,399.19,143.07,400Z" style="fill:#455a64"></path><path d="M140.21,399.77c-.34-.37-1-.13-1.38,0a12.41,12.41,0,0,0-2.67,1.16,20.05,20.05,0,0,0-4.61,3.75,41.6,41.6,0,0,0-6.16,8.14c-.37.68-.72,1.36-1,2.06l-.12.26a.15.15,0,0,0,.25,0c.13-.19.27-.37.41-.56l0-.05a23.77,23.77,0,0,1,3-3.65,56.33,56.33,0,0,1,5.71-4.63C134.42,405.66,141.39,401,140.21,399.77Zm-.81,1.55a27.46,27.46,0,0,1-4.55,3.77c-1.56,1.2-3.14,2.37-4.69,3.59a27.94,27.94,0,0,0-3.43,3.19,21.66,21.66,0,0,0-2.36,3.12,29.65,29.65,0,0,1,1.9-3.34l0,0a55.31,55.31,0,0,1,4.16-5.43l.06-.07a24.79,24.79,0,0,1,4.36-4.14,14.23,14.23,0,0,1,2.84-1.61c1.15-.47,2.13-.73,2.32-.35S139.77,400.89,139.4,401.32Z" style="fill:#fff"></path><path d="M130.61,406.29c-1.32,1.84-2.61,3.71-3.88,5.58l-1.79,2.65,0,.05-.64.95a64,64,0,0,0-5.5,9,29.7,29.7,0,0,0-1.77,5.22c0,.19-.09.37-.14.55h0c0,.1,0,.2-.07.3l0,.17c-.36,1.56-.64,3.14-.9,4.67-.37,2.14-.59,4.29-.79,6.44a.58.58,0,0,0,0,.19c0,.09,0,.19,0,.29a.76.76,0,0,1,0,.15c0,.09,0,.18,0,.28-.06.69-.13,1.38-.2,2.07l-.65-.12a42.22,42.22,0,0,1,.42-6.44.51.51,0,0,1,0-.13c0-.21,0-.42.08-.63s.07-.5.11-.76q.14-.92.3-1.83a45.45,45.45,0,0,1,2.76-10.38l.12-.27a.61.61,0,0,1,0-.12l.09-.19.14-.31c.09-.18.18-.36.28-.54l.08-.16a68.64,68.64,0,0,1,5.25-8l1-1.4.57-.77.88-1.15,0,0c1.38-1.82,2.8-3.6,4.16-5.43C130.53,406.1,130.67,406.2,130.61,406.29Z" style="fill:#455a64"></path></g><g id="freepik--Rocks--inject-30"><path d="M53.48,451.5h74.59s.28-6.43-2.35-8.75-5.18-2.9-6-3.41a46.58,46.58,0,0,1-5.64-4.51c-1.92-1.82-4.7-4.54-6.13-4.79s-8-1.27-9.33-.86-8.67,5.1-9.46,5.3-14.91,5.26-16.19,5.45-8.61,1.72-11.82,3.12C56.69,445,53.48,451.5,53.48,451.5Z" style="fill:#FFC727"></path><path d="M53.48,451.5h74.59s.28-6.43-2.35-8.75-5.18-2.9-6-3.41a46.58,46.58,0,0,1-5.64-4.51c-1.92-1.82-4.7-4.54-6.13-4.79s-8-1.27-9.33-.86-8.67,5.1-9.46,5.3-14.91,5.26-16.19,5.45-8.61,1.72-11.82,3.12C56.69,445,53.48,451.5,53.48,451.5Z" style="opacity:0.1"></path><path d="M75.45,439.17c3.28.13,8.13,2.7,9.09,3.09,1.41.59,9.9-1.51,13.25-1.76A4.8,4.8,0,0,0,102,436c-.2-.59,3.66-1.66,3.18-3.08-.28-.83-9-2.48-9-2.48-2.67,1.53-6.5,3.93-7.06,4.07S79.9,437.71,75.45,439.17Z" style="fill:#FFC727"></path><path d="M110.79,439.35c-.06-1-3.74-2.67-4.7-2.51a6.68,6.68,0,0,0-3.1,2.1c-.27.55-1.5,3.2-.32,3.22s3.42-1.5,4.65-1.56S110.84,440.16,110.79,439.35Z" style="fill:#FFC727"></path><path d="M83.15,443.13c.23-.61-3.18-1.8-4.07-1.69s-1.74,1.4-1,1.74,1.93-.13,2.53,0S83,443.6,83.15,443.13Z" style="fill:#FFC727"></path><path d="M620.23,448.23h76.29s-3.58-5-7.52-6.08-12.88-4.3-14.49-6.09-15.21-8.41-20.4-8.23-13.78,6.08-15,7.52-5.63,6.8-7.07,7.24S623.76,444.11,620.23,448.23Z" style="fill:#FFC727"></path><path d="M620.23,448.23h76.29s-3.58-5-7.52-6.08-12.88-4.3-14.49-6.09-15.21-8.41-20.4-8.23-13.78,6.08-15,7.52-5.63,6.8-7.07,7.24S623.76,444.11,620.23,448.23Z" style="opacity:0.1"></path><path d="M681.52,439.84a18,18,0,0,1-4.4.39c-.62-.07-6.6-3-8.8-3.3s-14.12-.81-15-2.12c-.65-1,3.9-4.1,6.89-5.71,5.93,2,13.14,5.69,14.29,7,.82.92,3.59,2.22,6.62,3.41Z" style="fill:#FFC727"></path><path d="M661.55,439.49c0-.66,4-1.16,4.87-1s4.83,1.84,4.06,2.16a10.35,10.35,0,0,1-3.84.5C665.36,441,661.55,440.23,661.55,439.49Z" style="fill:#FFC727"></path><path d="M129.24,454.94H112.36c-1.81,0,2.08-5.62,3.67-6.44s5.75-.35,6.77.55,5.35,3.78,5.89,4.25A1.84,1.84,0,0,1,129.24,454.94Z" style="fill:#FFC727"></path><path d="M681,461.89c1.1,0,.23-1.28-.23-1.63a8.94,8.94,0,0,0-3.5-1.25c-.83.07-1.61,1.15-2.58,1.44s-2.52,1.11-2.29,1.44Z" style="fill:#FFC727"></path><path d="M633.48,454.5H600.34s-.12-4,1-5.49a9.11,9.11,0,0,1,2.68-2.14,24.13,24.13,0,0,0,2.5-2.83c.86-1.14,2.09-2.85,2.73-3s3.54-.79,4.14-.54,3.85,3.21,4.2,3.33,6.63,3.3,7.2,3.42a25,25,0,0,1,5.25,2C632.05,450.4,633.48,454.5,633.48,454.5Z" style="fill:#FFC727"></path></g><g id="freepik--Character--inject-30"><path d="M156.17,252.49S266.26,331.66,321,338c54.16,6.23,183.05.21,210.59-5.54s67.21-30.83,67.21-30.83S545.45,392.93,507.76,406s-179.45,13.89-220.43,4.87C193.82,390.32,156.17,252.49,156.17,252.49Z" style="fill:#FFC727"></path><path d="M156.17,252.49S266.26,331.66,321,338c54.16,6.23,183.05.21,210.59-5.54s67.21-30.83,67.21-30.83S545.45,392.93,507.76,406s-179.45,13.89-220.43,4.87C193.82,390.32,156.17,252.49,156.17,252.49Z" style="opacity:0.1"></path><path d="M156.17,252.49s-6-3.42-7.13-4.75-2.33-6.21-2.33-6.21l1.74-3.17s.92,5.83,1.92,7.6S156.17,252.49,156.17,252.49Z" style="fill:#FFC727"></path><path d="M156.17,252.49s-4.86-.9-6-2.15a28,28,0,0,1-2.83-4.4l-.79,2.2s2,4.11,3.41,4.61S156.17,252.49,156.17,252.49Z" style="fill:#FFC727"></path><path d="M598.83,301.59s6.9-3.36,7.89-4.58,3.91-6.43,3.91-6.43l1.08,2.66s-2.44,5-4,5.71S598.83,301.59,598.83,301.59Z" style="fill:#FFC727"></path><path d="M609.35,285.2l.92,3.16s-4.23,7.43-5.19,8.15-6.25,5.08-6.25,5.08,4.95-5.52,5.72-7.24S609.35,285.2,609.35,285.2Z" style="fill:#FFC727"></path><g style="opacity:0.2"><path d="M158.43,254.09l13.31,15.09,13.35,15.05c8.95,10,17.86,20,27.19,29.63,2.33,2.39,4.68,4.78,7.15,7a43.92,43.92,0,0,0,8.18,5.65c5.81,3.29,11.89,6.12,18,8.93s12.25,5.44,18.44,8,12.38,5.16,18.62,7.62q-9.45-3.45-18.81-7.16t-18.57-7.77c-6.14-2.71-12.22-5.58-18.1-8.85a44.28,44.28,0,0,1-8.37-5.72c-2.51-2.25-4.89-4.63-7.23-7-9.29-9.7-18.21-19.72-27-29.82q-6.6-7.59-13.14-15.24Z"></path><path d="M188.79,282.12l9.64,7.58c3.21,2.53,6.42,5.06,9.67,7.54,6.45,5,12.94,10,19.73,14.49a63.2,63.2,0,0,0,10.91,5.38c3.77,1.56,7.58,3,11.39,4.52,7.63,2.92,15.31,5.74,23,8.55q-11.7-3.71-23.24-7.89c-3.85-1.39-7.69-2.81-11.48-4.36a65.94,65.94,0,0,1-11.09-5.38c-3.48-2.21-6.77-4.65-10-7.12s-6.5-5-9.69-7.54C201.22,292.75,194.93,287.52,188.79,282.12Z"></path><path d="M208.29,291.53c3.7,2.53,7.34,5.11,11,7.67q2.73,1.94,5.49,3.83c1.86,1.21,3.67,2.57,5.56,3.66A87.87,87.87,0,0,0,242.55,312q6.3,2.25,12.74,4.16-6.56-1.46-12.95-3.53a71.75,71.75,0,0,1-12.45-5.14c-3.92-2.29-7.47-5-11.1-7.61S211.69,294.44,208.29,291.53Z"></path><path d="M598.16,302q-7.45,8.07-15.16,15.89c-5.14,5.22-10.33,10.38-15.73,15.35a35.48,35.48,0,0,1-4.37,3.43c-1.55,1-3.12,1.95-4.69,2.89-3.15,1.87-6.31,3.72-9.51,5.5-6.38,3.58-12.8,7.1-19.29,10.49l18.91-11.16c3.13-1.88,6.3-3.71,9.42-5.61,1.56-1,3.11-1.92,4.63-2.91a34.06,34.06,0,0,0,4.23-3.38c5.42-4.87,10.61-10.05,15.86-15.14Z"></path><path d="M572.64,322.5c-5.34,4-10.79,7.88-16.45,11.45-1.42.89-2.85,1.76-4.37,2.52a31.31,31.31,0,0,1-4.74,1.79c-1.6.51-3.22.95-4.83,1.4s-3.24.83-4.88,1.18c-6.55,1.4-13.15,2.5-19.77,3.37s-13.28,1.52-20,1.9c3.32-.4,6.63-.8,9.93-1.26s6.61-.9,9.91-1.41c6.59-1,13.17-2.11,19.66-3.58,1.63-.33,3.24-.75,4.86-1.13s3.22-.84,4.8-1.33a31.87,31.87,0,0,0,4.63-1.7c1.47-.73,2.91-1.57,4.35-2.4,2.87-1.69,5.68-3.49,8.48-5.31S569.85,324.34,572.64,322.5Z"></path><path d="M579,315.52c-3.81,2.38-7.69,4.66-11.58,6.89s-7.85,4.38-11.86,6.44a27.38,27.38,0,0,1-3.13,1.36c-1.09.38-2.17.68-3.25,1-2.18.59-4.35,1.17-6.54,1.66-4.38,1-8.77,2-13.19,2.78l13-3.52c2.16-.61,4.33-1.16,6.48-1.8,1.07-.32,2.14-.64,3.17-1a28,28,0,0,0,3-1.36c4-2,7.95-4.13,11.93-6.21l6-3.14Z"></path></g><path d="M234.22,270.16c-2.77.09-12.81,1.65-19.48,4.65-3.23,1.45-12.08,6.61-11.15,9.18s3.64,1.29,3.64,1.29-3.41,2.74-2.24,5.24,5.33.37,5.33.37-3.29,3.07-1.95,5.48,5.17-.44,5.17-.44-3.14,2.67-1.2,4.19c2.34,1.83,7.58-3.74,11.24-5.17.83-.32,17.3-5.38,17.3-5.38Z" style="fill:#d3766a"></path><path d="M213.62,295.94c3.87-4.09,6.27-5.21,11.63-6.58.11,0,.09-.19,0-.17-5.38.86-8.59,1.83-11.81,6.57C213.26,296,213.44,296.13,213.62,295.94Z" style="fill:#263238"></path><path d="M210.12,291c4.38-3.89,7-5.13,12.49-7,.07,0,0-.16,0-.14-5.56,1.36-8.74,2.4-12.62,6.87C209.78,291,209.92,291.18,210.12,291Z" style="fill:#263238"></path><path d="M207.61,285c4.52-3.47,7.3-5,12.88-6.05a.11.11,0,0,0,0-.21,18.84,18.84,0,0,0-12.95,6.11C207.27,285.08,207.33,285.19,207.61,285Z" style="fill:#263238"></path><path d="M244.88,289.77s-5.2,4.76-7.95,6.35-15.15,3.72-15.77,1.07c-.79-3.43,6.13-6.08,9.69-6.93,0,0-1.84-7.92,2.71-10.9S244.88,289.77,244.88,289.77Z" style="fill:#d3766a"></path><path d="M221.26,296.17c1.53-3.64,6.27-4.46,9.66-5.55a.32.32,0,0,0,.18-.5c-.55-3.37-.34-8.29,2.25-10.8.07-.08,0-.2-.11-.13-3.14,2.31-3.74,7.13-2.9,10.79-3.49,1.06-8.21,2.09-9.12,6.18C221.22,296.18,221.25,296.2,221.26,296.17Z" style="fill:#263238"></path><path d="M245.19,317.61c17.3-8.91,37.84-36.16,32.49-43.13-5.19-6.77-31.51-6.33-46.4-4-2.18.34,1.87,3.39,3.45,11,.75,3.61,2.76,13.18,5.68,12.14,1.66-.58,7.13-.88,8.6-.84,1.21,0-6.86,9.84-10.45,16.27C232.36,320.16,240.46,320,245.19,317.61Z" style="fill:#d3766a"></path><path d="M446.67,371.37s34.76,14.78,34.78,14.8c6.19,4.15,11.69,7.68,14.7,9.24l.05,0a5.21,5.21,0,0,0,2.22.83h.06c2.49-1,37.11-49.49,37.75-51.59s-5.29-4.08-8.14-3.27-24.4,13.45-24.4,13.45l-34.95-14.46Z" style="fill:#d3766a"></path><path d="M284.53,335.08c.7.21,20.14,7.55,24.75,8.68,1.38.34,69.73-26.79,87.55-27.15,25.82-.53,99.48,35.18,99.48,35.18l-20.74,31.87s-63.2-25.79-80.66-25.79c-8.73,0-61.13,21.65-87.39,26-32.49,5.36-47.83-17.39-47.83-17.39Z" style="fill:#d3766a"></path><path d="M284.53,335.08c.7.21,20.14,7.55,24.75,8.68,1.38.34,40.31-17.09,58.21-21.17l11.75,41.7s-45.46,15.23-71.72,19.55c-32.49,5.36-47.83-17.39-47.83-17.39Z" style="fill:#37474f"></path><path d="M359.67,326.91c1.6,6.21,1.05,4.45,2.72,10.64.81,3,6.18,22.92,7.43,25.62a.07.07,0,0,0,.13,0c-.32-2.95-6-22.75-6.91-25.77-1.78-6.15-1.34-4.37-3.19-10.5A.09.09,0,0,0,359.67,326.91Z" style="fill:#263238"></path><path d="M361.61,362.8s-38.4,11.2-47.07,13.59a114.79,114.79,0,0,1-13.17,3c-4.55.57-9.09-.38-13.38-1.69a83.67,83.67,0,0,1-12.46-5.17,119.52,119.52,0,0,1-11.68-6.7,118.4,118.4,0,0,0,11.79,6.48,83.07,83.07,0,0,0,12.49,4.92c4.27,1.25,8.76,2.13,13.16,1.54a116.11,116.11,0,0,0,13-3.14c17.24-5,47-13.57,47-13.57C362.57,361.71,365.89,361.46,361.61,362.8Z" style="fill:#263238"></path><path d="M379.23,364.29s-45.46,15.23-71.72,19.55c-21.95,3.62-36.07-5.59-42.92-11.94l109.55-25.68Z" style="fill:#263238"></path><path d="M442.43,395.87l36.77,1.22c7.28,1.59,13.69,2.86,17.07,3.21h.05a5.15,5.15,0,0,0,2.37-.05s0,0,.05,0c1.95-1.84,16.4-59.64,16.23-61.82s-6.42-1.86-8.77-.07-17.78,21.46-17.78,21.46l-37.82-.66Z" style="fill:#d3766a"></path><path d="M280.27,340.41c.7.2,28.83,10.36,29.39,11.48.63,1.27,3.21,8.13,3.89,10.19,0,0,81.24-6.94,85.13-7,15.74-.2,80.12,4.54,80.12,4.54l-5.88,37.28s-66.66-2.42-91.1-2.57c-20.94-.12-84.66,3.27-84.66,3.27-32.87,1.93-46.25-20-46.25-20S280.25,340.4,280.27,340.41Z" style="fill:#d3766a"></path><path d="M377.11,356.74c4.62-.5,9.25-.9,13.88-1.27a111.92,111.92,0,0,1,13.95-.41c9.29.3,18.56.83,27.84,1.26s18.56,1,27.83,1.53,18.55,1.13,27.82,1.77l-.15.07,6.88-8.37-6.6,8.59-.06.07h-.09q-13.94-.57-27.84-1.26l-27.84-1.43-27.82-1.51a115,115,0,0,0-13.89.14C386.38,356.14,381.75,356.45,377.11,356.74Z" style="fill:#263238"></path><path d="M512.33,350.63c-.77,3.73-1.64,7.43-2.53,11.13S508,369.14,507,372.83s-2,7.34-3,11l-1.58,5.48c-.57,1.82-1.1,3.65-1.69,5.46.38-1.87.81-3.72,1.21-5.58l1.31-5.56c.89-3.69,1.86-7.37,2.79-11.06s2-7.35,3-11S511.16,354.26,512.33,350.63Z" style="fill:#263238"></path><path d="M313.22,350.94a78.49,78.49,0,0,0,0,13.54c0,.17.28.18.28,0,.13-4.5.36-9,.25-13.54A.28.28,0,0,0,313.22,350.94Z" style="fill:#37474f"></path><path d="M286,342.77c-.13,0-.25.18-.1.24,4.62,1.64,8.58,3.4,12.75,5.35,1.93.91,12.42,6.53,10.35,9.71-.34.53-1,.62-1.93.4a14.68,14.68,0,0,1-3.23-1.7c-2.18-1.22-4.39-2.37-6.66-3.42a67.82,67.82,0,0,0-13.14-4.6.12.12,0,0,0-.07.23,127.35,127.35,0,0,1,17.69,7.6c2.72,1.48,6.53,4.5,8.06,1.65s-5-7.52-6.82-8.61A70.52,70.52,0,0,0,286,342.77Z" style="fill:#37474f"></path><path d="M309.31,358.09a20.84,20.84,0,0,0,2,1.61,5.57,5.57,0,0,0,1.77,1c.13,0,.2-.12.14-.22a7.17,7.17,0,0,0-1.54-1.47c-.62-.52-1.22-1.05-1.85-1.56A.42.42,0,0,0,309.31,358.09Z" style="fill:#37474f"></path><path d="M280.27,340.41c.7.2,28.83,10.36,29.39,11.48.63,1.27,3.21,8.13,3.89,10.19,0,0,58.05-7.18,61.94-7.24L358,396.27c-20.94-.12-60.81,1.34-60.81,1.34-32.87,1.93-46.25-20-46.25-20S280.25,340.4,280.27,340.41Z" style="fill:#37474f"></path><path d="M365.48,357.7c-2.58,5.87-1.92,4.15-4.44,10.05-1.23,2.88-9.29,21.85-10,24.74a.07.07,0,0,0,.12.05c1.57-2.52,9.3-21.62,10.47-24.53,2.4-5.95,1.65-4.27,4-10.24A.09.09,0,0,0,365.48,357.7Z" style="fill:#263238"></path><path d="M313.22,350.94a78.49,78.49,0,0,0,0,13.54c0,.17.28.18.28,0,.13-4.5.36-9,.25-13.54A.28.28,0,0,0,313.22,350.94Z" style="fill:#263238"></path><path d="M286,342.77c-.13,0-.25.18-.1.24,4.62,1.64,8.58,3.4,12.75,5.35,1.93.91,12.42,6.53,10.35,9.71-.34.53-1,.62-1.93.4a14.68,14.68,0,0,1-3.23-1.7c-2.18-1.22-4.39-2.37-6.66-3.42a67.82,67.82,0,0,0-13.14-4.6.12.12,0,0,0-.07.23,127.35,127.35,0,0,1,17.69,7.6c2.72,1.48,6.53,4.5,8.06,1.65s-5-7.52-6.82-8.61A70.52,70.52,0,0,0,286,342.77Z" style="fill:#263238"></path><path d="M309.31,358.09a20.84,20.84,0,0,0,2,1.61,5.57,5.57,0,0,0,1.77,1c.13,0,.2-.12.14-.22a7.17,7.17,0,0,0-1.54-1.47c-.62-.52-1.22-1.05-1.85-1.56A.42.42,0,0,0,309.31,358.09Z" style="fill:#263238"></path><path d="M284.53,335.08c-.51,13.67-33.15,42.52-33.62,42.5-1.27-.05-25.11-29.88-25.4-59,0-5.13,6.1-10.54,10.63-10.61,10.16-.17,38.15,22,40.3,23C280.44,332.83,284.55,334.65,284.53,335.08Z" style="fill:#d3766a"></path><path d="M270.53,337.88a2.11,2.11,0,0,0,.32.9,4.82,4.82,0,0,0,.56.78,7.21,7.21,0,0,0,1.41,1.24c.24.17.58.27.62.2s0-.35-.21-.57a3.52,3.52,0,0,0-1.52-1.13,2.91,2.91,0,0,1,1.8.88,1.77,1.77,0,0,1,.34.45.6.6,0,0,1-.09.71.7.7,0,0,1-.69.12,2.19,2.19,0,0,1-.51-.24,5.41,5.41,0,0,1-1.49-1.41A2.67,2.67,0,0,1,270.53,337.88Z" style="fill:#263238"></path><path d="M253.09,319.46a1,1,0,1,0,1.36-1.51,1,1,0,1,0-1.36,1.51Z" style="opacity:0.1"></path><path d="M240.38,332.14a1.3,1.3,0,1,0-.1-1.84A1.3,1.3,0,0,0,240.38,332.14Z" style="opacity:0.1"></path><path d="M254.55,316.11a54.24,54.24,0,0,1-7.15-4.24s-.19-.28,0-.2A21.68,21.68,0,0,1,250,313c-.05,0-.36-.82-.55-1.19,0,0,0-.06,0,0,.32.29.85,1.34,1,1.49s3.39,2.1,4.1,2.64C255,316.21,254.76,316.19,254.55,316.11Z" style="fill:#263238"></path><path d="M241.89,317c-2.35,2.37-9.7,1.11-13.7-1.14-.27-.15-5.12-10.11-6.29-12-.24-.38,13.54-4.47,13.54-4.47a34.94,34.94,0,0,0,3.35,7.9C239,307.56,244.17,314.7,241.89,317Z" style="fill:#d3766a"></path><path d="M235.45,299.38v0l.23.76c.24.73.63,1.91,1.16,3.2a24.41,24.41,0,0,0,2,3.93,2.2,2.2,0,0,0,.17.25l0,0c.11.15.24.35.4.59a8.43,8.43,0,0,1-1.1.77c-6.49,3.85-13.54-2.67-16-5.31a1.23,1.23,0,0,1,.23-.09c.34-.15.8-.32,1.36-.51l.43-.15c.9-.31,2-.66,3.1-1l1.12-.36,2.39-.74,1-.29,1-.3.45-.14.21-.06,1.14-.34.55-.17.23-.06h0Z" style="fill:#263238"></path><path d="M212.25,290.44c1,5,9.94,16.33,14.51,17.48,6.62,1.67,14.15-1.84,14.74-9.05.57-7-11.36-21.5-16.16-22.2C218.28,275.64,210.81,283,212.25,290.44Z" style="fill:#d3766a"></path><path d="M219.63,300.65c2.59-2.69-1.77-7.93-1.77-7.93s3.71-5.34.9-9.37c0,0,7-1.67,9.12-6.31s-2.5-7.7-3.7-8.13-1.51,3-1.51,3-2.41-1.92-3.2-1.55-.09,2.3-.09,2.3a39.79,39.79,0,0,0-9.56,7.12c-3.79,4.13-1.67,10.05-1.67,10.05s-1.63,2.59-.8,4.74S218,302.37,219.63,300.65Z" style="fill:#263238"></path><path d="M216.84,293.83c3.93-3.1,3.86-7.76.95-11.59,0-.05,0-.1.06-.06,3.08,3.19,3.75,9.59-.89,11.84C216.85,294.07,216.74,293.91,216.84,293.83Z" style="fill:#263238"></path><path d="M208.18,289.65s.11,0,.09,0c-.5,1.45-1.26,2.93-1,4.51.28,1.91,1.9,3.12,3.45,4,2.41,1.39,5.89,2.83,8.7,2.2a.13.13,0,0,1,.05.25c-3.24.89-7.66-1.07-10.22-3C206.36,295.53,206.44,292.54,208.18,289.65Z" style="fill:#263238"></path><path d="M223.54,280.41a7.31,7.31,0,0,0,5.18-5.52c.51-3.15-2-4.84-4.62-5.78-.13-.05-.1-.27,0-.24,2.66.42,5.16,2.67,5,5.52s-2.84,5.66-5.56,6.38C223.38,280.83,223.31,280.47,223.54,280.41Z" style="fill:#263238"></path><path d="M220.47,299.14s-5-2.44-6.3-.43,4.09,6.64,6.67,6.25a2.5,2.5,0,0,0,2.26-2.8Z" style="fill:#d3766a"></path><path d="M215.74,300a0,0,0,1,0,0,.06,6.26,6.26,0,0,1,4.75,1.85,1.38,1.38,0,0,0-2,.67c0,.05.05.09.09.06a1.53,1.53,0,0,1,1.73-.35,7.49,7.49,0,0,1,1.37.79c.14.1.34-.11.21-.24l0,0C220.87,300.89,217.9,299.05,215.74,300Z" style="fill:#263238"></path><path d="M224.92,289.65c.27-.35.47-.72.71-1.09a2,2,0,0,0,.51-1.24.66.66,0,0,0-.57-.57,1.65,1.65,0,0,0-1.43.87,2.46,2.46,0,0,0-.48,1.68A.72.72,0,0,0,224.92,289.65Z" style="fill:#263238"></path><path d="M232.39,283.64a10.47,10.47,0,0,1-1.25.34,2.13,2.13,0,0,1-1.34.09.66.66,0,0,1-.36-.73,1.63,1.63,0,0,1,1.28-1.07,2.38,2.38,0,0,1,1.74.08A.7.7,0,0,1,232.39,283.64Z" style="fill:#263238"></path><path d="M232.51,298.37a1.49,1.49,0,0,0,1,0,2.54,2.54,0,0,0,.69-.83s.06,0,.06,0a1.31,1.31,0,0,1-.66,1.17,1.07,1.07,0,0,1-1.14-.22S232.46,298.37,232.51,298.37Z" style="fill:#263238"></path><path d="M231.56,295.43a3.34,3.34,0,0,0,2.66-.17,4.15,4.15,0,0,0,1-.68l.16-.16.15-.15a.24.24,0,0,0,0-.29h0a.23.23,0,0,0-.07-.07h0l-.05-.07c-.44-.61-1.19-1.47-1.19-1.47.3-.06,1.8-.41,1.54-.7a50.08,50.08,0,0,0-7.11-7.23c-.08-.07-.2.05-.13.13,1.95,2.45,4.31,4.55,6.3,7a6.18,6.18,0,0,0-1.54.57c-.06.09,1.48,1.65,1.66,1.94a0,0,0,0,1,0,0,4.56,4.56,0,0,1-3.38,1.23C231.49,295.3,231.47,295.4,231.56,295.43Z" style="fill:#263238"></path><path d="M234.62,294.55a3.9,3.9,0,0,1-.51,1.93,1.82,1.82,0,0,1-.82.7c-.75.31-1.19-.25-1.45-.82a4.41,4.41,0,0,1-.29-1A5.11,5.11,0,0,0,234.62,294.55Z" style="fill:#263238"></path><path d="M234.11,296.48a1.82,1.82,0,0,1-.82.7c-.75.31-1.19-.25-1.45-.82A1.83,1.83,0,0,1,234.11,296.48Z" style="fill:#ff99ba"></path><path d="M227.29,292.59a1.49,1.49,0,0,0,.73.3,1.06,1.06,0,0,0,.81-.28,1,1,0,0,0,.29-.81,1.66,1.66,0,0,0-.29-.72,2.69,2.69,0,0,0-.3-.37,2,2,0,0,0-.79-.54,3.31,3.31,0,0,1,.45.54,3.41,3.41,0,0,1,.32.55c.19.39.25.8,0,1a.82.82,0,0,1-1,0,7.23,7.23,0,0,1-1.1-.79A3.17,3.17,0,0,0,227.29,292.59Z" style="fill:#263238"></path><path d="M234.85,286.83a1.55,1.55,0,0,1,.1.78,1.07,1.07,0,0,1-.48.71,1,1,0,0,1-.86.06,1.66,1.66,0,0,1-.63-.46c-.1-.12-.18-.25-.27-.38a2.06,2.06,0,0,1-.31-.92,2.71,2.71,0,0,0,.4.58,3.84,3.84,0,0,0,.44.46c.33.28.72.45,1,.26a.84.84,0,0,0,.27-1,6.84,6.84,0,0,0-.48-1.27A3.13,3.13,0,0,1,234.85,286.83Z" style="fill:#263238"></path><path d="M227.76,277.74a33.81,33.81,0,0,1,4.33,3.59,41.6,41.6,0,0,1,3.76,4.2,34.79,34.79,0,0,1,3.07,4.73,26.42,26.42,0,0,1,2.11,5.22,38.26,38.26,0,0,0-2.44-5,38.92,38.92,0,0,0-3.13-4.61,49,49,0,0,0-3.64-4.24Q229.89,279.58,227.76,277.74Z" style="fill:#263238"></path><path d="M288.36,330.5c0,2.1,7.32,3.81,16.34,3.81S321,332.6,321,330.5s-7.31-3.81-16.34-3.81S288.36,328.4,288.36,330.5Z" style="fill:#fff"></path><path d="M291.88,329.81c0,.58,1.18,1.1,3.12,1.49h0c.75.17,1.61.3,2.55.42a62.76,62.76,0,0,0,7.15.38,55.67,55.67,0,0,0,8.57-.59,19,19,0,0,0,2.53-.55c1.1-.34,1.72-.73,1.72-1.15s-.31-.58-.87-.84a10.61,10.61,0,0,0-2.15-.64,49.88,49.88,0,0,0-9.8-.82,54.86,54.86,0,0,0-8.94.65,20,20,0,0,0-2.33.54C292.44,329,291.88,329.41,291.88,329.81Z" style="fill:#FFC727"></path><path d="M321,330.18a.67.67,0,0,1,.06.12.1.1,0,0,0,0-.07S321,330.2,321,330.18Z" style="fill:#FFC727"></path><path d="M301.12,326.78c1.37-.06,2.72-.08,4-.08h-.42C303.48,326.69,302.27,326.72,301.12,326.78Z" style="fill:#FFC727"></path><path d="M284.28,343.18a26.13,26.13,0,0,0,.11,2.79,22.19,22.19,0,0,0,.49,2.76,18.24,18.24,0,0,0,.93,2.66,16.08,16.08,0,0,0,1.36,2.47A14.55,14.55,0,0,0,289,356a14.75,14.75,0,0,0,4.72,3.06,20.52,20.52,0,0,0,5.4,1.33,38.8,38.8,0,0,0,5.49.18,27.85,27.85,0,0,0,10.72-2,17,17,0,0,0,4.62-3,16.35,16.35,0,0,0,3.39-4.37,11.58,11.58,0,0,0,1.07-2.6,15.44,15.44,0,0,0,.5-2.75,23.93,23.93,0,0,0-.2-5.55,36,36,0,0,0-1.2-5.37c-.27-.87-.57-1.74-.9-2.6-.16-.42-.33-.85-.52-1.27a11.14,11.14,0,0,0-.62-1.25h0l0,0a4.41,4.41,0,0,0-1.16-.95c-2.9-1.35-9.2-2.55-15.13-2.55-9.35,0-14,1.86-14.78,2.21a11.33,11.33,0,0,0-1.22.58c-.2.11-.39.23-.58.35s-.2.14-.29.22l-.13.11-.06.06a.28.28,0,0,0-.09.08v0a11.93,11.93,0,0,0-.69,1.24c-.19.41-.38.83-.56,1.25-.36.85-.69,1.7-1,2.57a31.92,31.92,0,0,0-1.24,5.39C284.39,341.32,284.31,342.25,284.28,343.18Zm4-12.68c0-.05.06-.1.08-.15l0,0h0c.27-1.25,3.15-2.34,7.41-3l.43-.07c.94-.15,1.9-.25,2.85-.32.63-.06,1.25-.1,1.87-.13h.17c1.37-.06,2.72-.08,4-.08l1.51,0c.76,0,1.47,0,2.16.09l.9.07a42.83,42.83,0,0,1,6.45.9h0l.07,0c2.67.62,4.41,1.46,4.73,2.39.05,0,.12.1.05.07h0l-.05,0s0,0,0-.05a.67.67,0,0,1,.06.12v0l.06.12s0,0,0,.05h0c0,1.51-3.79,2.81-9.25,3.42h-.1c-.86.11-1.73.19-2.59.25-.55,0-1.09.06-1.63.07-.9,0-1.82.05-2.76.05-8.87,0-16.08-1.64-16.33-3.69l0,0Z" style="fill:#FFC727"></path><g style="opacity:0.5"><path d="M284.28,343.18a26.13,26.13,0,0,0,.11,2.79,22.19,22.19,0,0,0,.49,2.76,18.24,18.24,0,0,0,.93,2.66,16.08,16.08,0,0,0,1.36,2.47A14.55,14.55,0,0,0,289,356a14.75,14.75,0,0,0,4.72,3.06,20.52,20.52,0,0,0,5.4,1.33,38.8,38.8,0,0,0,5.49.18,27.85,27.85,0,0,0,10.72-2,17,17,0,0,0,4.62-3,16.35,16.35,0,0,0,3.39-4.37,11.58,11.58,0,0,0,1.07-2.6,15.44,15.44,0,0,0,.5-2.75,23.93,23.93,0,0,0-.2-5.55,36,36,0,0,0-1.2-5.37c-.27-.87-.57-1.74-.9-2.6-.16-.42-.33-.85-.52-1.27a11.14,11.14,0,0,0-.62-1.25h0l0,0a4.41,4.41,0,0,0-1.16-.95c-2.9-1.35-9.2-2.55-15.13-2.55-9.35,0-14,1.86-14.78,2.21a11.33,11.33,0,0,0-1.22.58c-.2.11-.39.23-.58.35s-.2.14-.29.22l-.13.11-.06.06a.28.28,0,0,0-.09.08v0a11.93,11.93,0,0,0-.69,1.24c-.19.41-.38.83-.56,1.25-.36.85-.69,1.7-1,2.57a31.92,31.92,0,0,0-1.24,5.39C284.39,341.32,284.31,342.25,284.28,343.18Zm4-12.68c0-.05.06-.1.08-.15l0,0h0c.27-1.25,3.15-2.34,7.41-3l.43-.07c.94-.15,1.9-.25,2.85-.32.63-.06,1.25-.1,1.87-.13h.17c1.37-.06,2.72-.08,4-.08l1.51,0c.76,0,1.47,0,2.16.09l.9.07a42.83,42.83,0,0,1,6.45.9h0l.07,0c2.67.62,4.41,1.46,4.73,2.39.05,0,.12.1.05.07h0l-.05,0s0,0,0-.05a.67.67,0,0,1,.06.12v0l.06.12s0,0,0,.05h0c0,1.51-3.79,2.81-9.25,3.42h-.1c-.86.11-1.73.19-2.59.25-.55,0-1.09.06-1.63.07-.9,0-1.82.05-2.76.05-8.87,0-16.08-1.64-16.33-3.69l0,0Z"></path></g><path d="M290.12,336.8a3.32,3.32,0,0,1,.08.81,5.74,5.74,0,0,1-.1.74,6,6,0,0,1-.22.72,4.14,4.14,0,0,1-.38.71,1.72,1.72,0,0,1-.21-.81,2.9,2.9,0,0,1,.06-.78,3.47,3.47,0,0,1,.27-.74A2.31,2.31,0,0,1,290.12,336.8Z" style="fill:#fff"></path><path d="M290.08,347.72a2.77,2.77,0,0,1,.28.77,4.82,4.82,0,0,1,.09.74,4.71,4.71,0,0,1,0,.75,3.48,3.48,0,0,1-.18.78,1.75,1.75,0,0,1-.41-.72,3.05,3.05,0,0,1-.14-.78,3.3,3.3,0,0,1,.07-.77A2.22,2.22,0,0,1,290.08,347.72Z" style="fill:#fff"></path><path d="M294.24,352.46a2.66,2.66,0,0,1,.28.77,4.65,4.65,0,0,1,.06,1.49,3.48,3.48,0,0,1-.18.78,1.94,1.94,0,0,1-.41-.72,3,3,0,0,1-.13-.78,3.42,3.42,0,0,1,.06-.78A2.47,2.47,0,0,1,294.24,352.46Z" style="fill:#fff"></path><path d="M293.4,342.42a2.9,2.9,0,0,1,.18.79,4.69,4.69,0,0,1,0,.75,4.78,4.78,0,0,1-.13.74,3.65,3.65,0,0,1-.28.75,2,2,0,0,1-.32-.77,3.08,3.08,0,0,1,.14-1.55A2.15,2.15,0,0,1,293.4,342.42Z" style="fill:#fff"></path><path d="M296.62,338.54a3.05,3.05,0,0,1,.18.8,4.7,4.7,0,0,1,0,.75,3.6,3.6,0,0,1-.13.73,3.22,3.22,0,0,1-.28.76,1.82,1.82,0,0,1-.31-.77,3,3,0,0,1,0-.79,3.34,3.34,0,0,1,.17-.76A2.19,2.19,0,0,1,296.62,338.54Z" style="fill:#fff"></path><path d="M313.78,337a2,2,0,0,1,.5.65,3.28,3.28,0,0,1,.27.74,2.87,2.87,0,0,1,.08.78,2,2,0,0,1-.21.81,3.1,3.1,0,0,1-.38-.71,4.89,4.89,0,0,1-.23-.71,4.67,4.67,0,0,1-.1-.75A2.87,2.87,0,0,1,313.78,337Z" style="fill:#fff"></path><path d="M321,347a2.25,2.25,0,0,1,.32.76,3,3,0,0,1,.07.78,3,3,0,0,1-.13.78,1.72,1.72,0,0,1-.4.72,3,3,0,0,1-.19-.78,4.71,4.71,0,0,1,0-.75,3.86,3.86,0,0,1,.1-.74A2.73,2.73,0,0,1,321,347Z" style="fill:#fff"></path><path d="M316.89,351.19a2.47,2.47,0,0,1,.32.76,3,3,0,0,1,.07.78,3,3,0,0,1-.13.78,1.84,1.84,0,0,1-.4.72,3,3,0,0,1-.19-.78,3.72,3.72,0,0,1,0-.74,4.8,4.8,0,0,1,.09-.75A2.89,2.89,0,0,1,316.89,351.19Z" style="fill:#fff"></path><path d="M319.57,340a2.19,2.19,0,0,1,.41.72,2.8,2.8,0,0,1,.17.76,2.56,2.56,0,0,1,0,.78,1.85,1.85,0,0,1-.31.78,3.22,3.22,0,0,1-.28-.76,3.6,3.6,0,0,1-.13-.73,3.76,3.76,0,0,1,0-.75A3.05,3.05,0,0,1,319.57,340Z" style="fill:#fff"></path><path d="M296.64,347.43a2.21,2.21,0,0,1,.3.72,3.45,3.45,0,0,1,.09.71,3.53,3.53,0,0,1-.08.72,2.08,2.08,0,0,1-.3.71,2.08,2.08,0,0,1-.3-.71,3.24,3.24,0,0,1,0-1.43A2.18,2.18,0,0,1,296.64,347.43Z" style="fill:#fff"></path><path d="M305.2,337.33a2.21,2.21,0,0,1,.3.72,3.24,3.24,0,0,1,0,1.43,2.42,2.42,0,0,1-.29.72,2.21,2.21,0,0,1-.3-.72,2.94,2.94,0,0,1-.09-.71,3.53,3.53,0,0,1,.08-.72A2.21,2.21,0,0,1,305.2,337.33Z" style="fill:#fff"></path><path d="M304.74,347a2.21,2.21,0,0,1,.3.72,2.94,2.94,0,0,1,.09.71,3.53,3.53,0,0,1-.08.72,2.21,2.21,0,0,1-.3.72,2.21,2.21,0,0,1-.3-.72,3.24,3.24,0,0,1,0-1.43A2.42,2.42,0,0,1,304.74,347Z" style="fill:#fff"></path><path d="M301.7,341.65a2.52,2.52,0,0,1,.3.71,3.53,3.53,0,0,1,.08.72,2.94,2.94,0,0,1-.08.72,2.26,2.26,0,0,1-.3.71,2.16,2.16,0,0,1-.3-.71,3.53,3.53,0,0,1-.08-.72,2.81,2.81,0,0,1,.08-.71A2.21,2.21,0,0,1,301.7,341.65Z" style="fill:#fff"></path><path d="M301.21,351.77a2.45,2.45,0,0,1,.3.72,3.43,3.43,0,0,1,.08.71,2.94,2.94,0,0,1-.08.72,2.08,2.08,0,0,1-.3.71,2.08,2.08,0,0,1-.3-.71,3.24,3.24,0,0,1,0-1.43A2.21,2.21,0,0,1,301.21,351.77Z" style="fill:#fff"></path><path d="M309,354a2.21,2.21,0,0,1,.3.72,3.51,3.51,0,0,1,.08.71,2.94,2.94,0,0,1-.08.72,2.42,2.42,0,0,1-.29.72,2.49,2.49,0,0,1-.31-.72,3.24,3.24,0,0,1,0-1.43A2.21,2.21,0,0,1,309,354Z" style="fill:#fff"></path><path d="M309,341.63a2.21,2.21,0,0,1,.3.72,3.43,3.43,0,0,1,.08.71,2.94,2.94,0,0,1-.08.72,2.08,2.08,0,0,1-.3.71,2.08,2.08,0,0,1-.3-.71,3.24,3.24,0,0,1,0-1.43A2.21,2.21,0,0,1,309,341.63Z" style="fill:#fff"></path><path d="M313.1,346a2.26,2.26,0,0,1,.3.71,2.94,2.94,0,0,1,.08.72,2.53,2.53,0,0,1-.08.72,2,2,0,0,1-.29.71,2.16,2.16,0,0,1-.3-.71,3,3,0,0,1-.09-.72,3.36,3.36,0,0,1,.08-.71A2.21,2.21,0,0,1,313.1,346Z" style="fill:#fff"></path><path d="M281.24,323.48a2.12,2.12,0,0,0,.23.48,3.33,3.33,0,0,0,.36.39l.05.06.09,0,4.36-.79c.73-.12,1.46-.25,2.16-.32l.5,0a1.07,1.07,0,0,1,.3.18,10.4,10.4,0,0,1,.75.74,40.17,40.17,0,0,1,2.7,3.47l.7,1.06c.55.86,1.08,1.73,1.56,2.6h0c.75.17,1.61.3,2.55.42v0c-.55-1.2-1.14-2.38-1.79-3.53-.24-.43-.48-.85-.73-1.26a25.86,25.86,0,0,0-3.21-4.43,7.84,7.84,0,0,0-1.05-.93,3.2,3.2,0,0,0-1.35-.64,9.28,9.28,0,0,0-2.8.13,36.9,36.9,0,0,0-5.24,1.42,1.08,1.08,0,0,0-.2.5A1.37,1.37,0,0,0,281.24,323.48Z" style="fill:#455a64"></path><path d="M313.28,331.51a19,19,0,0,0,2.53-.55c.2-.43.5-1.13.85-2,1.15-2.78,2.82-7.12,3.31-8.37l.13-.35,0-.08-.06-.05a5.56,5.56,0,0,0-.87-.55,2.93,2.93,0,0,0-1-.33h-.1l0,.11a2.54,2.54,0,0,0-.11.26c-.5,1.22-2.18,5.53-3.42,8.72C314,329.72,313.52,330.89,313.28,331.51Z" style="fill:#c7c7c7"></path><path d="M306.12,316.53l1,0c.3,0,.62,0,.92,0s.62,0,.92.09a11.13,11.13,0,0,1,1.8.4,10.2,10.2,0,0,1,1.7.72,7.2,7.2,0,0,1,1.47,1.07l0,.05h.1a10.94,10.94,0,0,1,2.61.29,11.33,11.33,0,0,1,1.26.37c.4.17.81.32,1.2.52a13.72,13.72,0,0,1,2.22,1.38,12.36,12.36,0,0,1,1.9,1.78l.08.1.13,0c.35.07.71.11,1.06.19a9.59,9.59,0,0,1,1,.32,8.09,8.09,0,0,1,1.93,1,9.25,9.25,0,0,1,1.65,1.42,8.38,8.38,0,0,1,.69.86c.1.15.21.3.31.46a2.55,2.55,0,0,1,.14.24.39.39,0,0,1,.06.11l0,.07s0,0,0,0a.3.3,0,0,0,0,.08s0-.12,0-.12l0-.06c0-.05,0-.09,0-.13s-.08-.18-.12-.26-.17-.33-.27-.5a7.07,7.07,0,0,0-.4-.61l-1.22-2.38-1.91-3.92c-.62-1.28-1.24-2.56-1.87-3.8s-1.29-2.5-2-3.74l-.15-.28-.3.08-3.78.94-3.79,1c-2.5.64-5,1.34-7.5,2h0Z" style="fill:#FFC727"></path><path d="M314,318.94c1.34-1.19,2.73-2.3,4.13-3.41s2.82-2.19,4.29-3.22c-1.34,1.19-2.74,2.3-4.14,3.41S315.49,317.92,314,318.94Z" style="opacity:0.2"></path><path d="M323.3,323.38c-.24-1.84-.39-3.68-.55-5.52s-.26-3.69-.3-5.55c.24,1.84.39,3.68.55,5.53S323.26,321.53,323.3,323.38Z" style="opacity:0.2"></path><path d="M224.4,321c-2,16-3.93,47.9,3.54,53.35s34.13-.24,43.2-2.31c3-.68,4.65-24.72,1.38-24.77-5.56-.09-29.53,5.27-30.88,4.06-.85-.76-3.79-19.9-7.57-30.29C229.16,307.49,225,316,224.4,321Z" style="fill:#d3766a"></path><path d="M262.39,349.3s7.66-5.78,12.85-9.32c2.89-2,8.16-4.92,10.95-5.4,4.17-.72,22.09-1.05,22.26,3.29.16,3.93-15.27,2.26-15.27,2.26s15.72.31,15,5.08-17.86.56-17.86.56,16.14.68,14.66,5.49c-1.12,3.63-16.9.7-16.9.7s13.87.68,12.89,4.46c-1.1,4.18-15.83,2.39-15.83,2.39-4.13,9.2-9.86,11.89-14.16,13.31C270,372.47,262.39,349.3,262.39,349.3Z" style="fill:#d3766a"></path><path d="M287.75,339.68c1.85,0,3.72-.07,5.56.06s3.69.33,5.51.64a30.68,30.68,0,0,1,7,1.86c-4.1-1.28-10.7-1.86-12.54-2s-3.68-.36-5.52-.49C287.7,339.75,287.71,339.68,287.75,339.68Z" style="fill:#263238"></path><path d="M287.15,346.33c2.36.06,4.7,0,7.06.21s4.56.53,6.89.85c.18,0,.11.12-.07.1-2.34-.24-4.52-.27-6.87-.48s-4.68-.5-7-.62A0,0,0,0,1,287.15,346.33Z" style="fill:#263238"></path><path d="M285.6,351.94a52.76,52.76,0,0,1,10.78,1.14c.18,0,.07.14-.11.12-3.58-.45-6.38-.83-10.66-1.13C285.54,352.06,285.53,351.94,285.6,351.94Z" style="fill:#263238"></path><path d="M236.45,329.1l2.46,10.84c.41,1.81.83,3.61,1.28,5.41a50.41,50.41,0,0,0,1.47,5.3c.05.18.23.46.14.32a4,4,0,0,0,.61,0c.45,0,.91-.05,1.37-.09.91-.09,1.83-.2,2.75-.32l5.5-.72,11-1.6-.11.05c3.41-2.52,6.87-5,10.44-7.25,1.77-1.15,3.59-2.25,5.43-3.29a34.93,34.93,0,0,1,5.75-2.68,34.38,34.38,0,0,0-5.67,2.81q-2.73,1.62-5.35,3.41c-3.5,2.37-6.94,4.83-10.29,7.4l-.05,0-.07,0c-3.64.66-7.3,1.24-11,1.79-1.84.27-3.67.55-5.51.77-.93.1-1.85.21-2.78.29-.46,0-.93.07-1.41.08a3.49,3.49,0,0,1-.77,0l-.12,0a.56.56,0,0,1-.22-.15,1.25,1.25,0,0,1-.14-.21l-.16-.36A99.47,99.47,0,0,1,238.44,340C237.7,336.41,237.08,332.75,236.45,329.1Z" style="fill:#263238"></path><path d="M237.72,330.74a13.72,13.72,0,0,1,.13,2.12,9.41,9.41,0,0,1-.23,2.11A31.49,31.49,0,0,1,237.72,330.74Z" style="fill:#263238"></path><path d="M598.82,301.61C598,303,545.16,393,507.77,406c-37.69,13.09-179.46,13.89-220.44,4.87-93.51-20.58-131.16-158.41-131.16-158.41s82.16,108.6,128.54,122.87c37.75,11.62,203.68,23.15,224.44,15.16C529.72,382.6,597.54,303.1,598.82,301.61Z" style="fill:#FFC727"></path><g style="opacity:0.2"><path d="M156.76,254.53l4.16,8.87,4.12,8.89L173.35,290c1.37,3,2.76,5.92,4.18,8.85.73,1.46,1.42,2.94,2.25,4.33s1.77,2.74,2.72,4.06c1.91,2.64,3.93,5.21,6,7.75s4.11,5.07,6.23,7.56c-4.35-4.88-8.59-9.85-12.48-15.12-1-1.31-1.91-2.65-2.77-4.05s-1.56-2.89-2.3-4.34q-2.17-4.4-4.26-8.83l-8.16-17.82-4-8.93Z"></path><path d="M166.55,267.91q2.58,4.26,5.12,8.56l5.05,8.59c.84,1.43,1.68,2.86,2.55,4.27a24.09,24.09,0,0,0,3.18,3.76c1.16,1.18,2.37,2.31,3.61,3.42s2.49,2.2,3.77,3.26a80.64,80.64,0,0,1-7.66-6.4,22.13,22.13,0,0,1-3.28-3.8c-.9-1.41-1.75-2.83-2.6-4.26-1.67-2.88-3.33-5.75-4.95-8.65S168.11,270.84,166.55,267.91Z"></path><path d="M598.82,301.61q-5,7.33-10.13,14.62t-10.31,14.49l-5.25,7.17c-.89,1.19-1.78,2.38-2.69,3.55s-1.93,2.26-2.87,3.4c-1.92,2.26-3.79,4.56-5.66,6.85l-5.62,6.89c3.6-4.71,7.22-9.4,11-14,.93-1.15,1.93-2.26,2.83-3.42s1.78-2.36,2.66-3.55l5.22-7.2L588.38,316Z"></path><path d="M579,327.1c-1.43,2-2.89,3.91-4.38,5.82s-3,3.81-4.53,5.7-3.09,3.75-4.69,5.58a67.53,67.53,0,0,1-5,5.29c.84-.87,1.62-1.8,2.39-2.74s1.55-1.86,2.32-2.8l4.59-5.64,4.62-5.63Q576.59,329.88,579,327.1Z"></path></g></g></svg>